<svg width="425" height="400" viewBox="0 0 425 400" fill="none" xmlns="http://www.w3.org/2000/svg">
<g clip-path="url(#clip0_4125_6518)">
<path d="M228.518 9.95632C210.918 -1.76989 184.253 -2.4189 165.817 4.24722C132.816 16.1714 137.216 42.7479 108.616 61.4482C80.0154 80.1485 52.515 73.5484 25.0145 97.8148C-2.486 122.081 -4.97204 168.007 6.31415 189.49C17.6004 210.974 30.5146 226.737 19.5144 263.709C8.51419 300.68 9.61421 343.625 53.615 366.231C97.6157 388.836 131.716 340.644 160.317 350.555C188.917 360.466 242.818 404.346 302.219 391.256C361.62 378.166 335.22 333.131 373.721 320.316C412.221 307.501 434.222 263.258 421.021 216.54C407.821 169.822 374.821 160.835 382.521 131.453C388.329 109.266 396.117 87.9147 381.311 66.5523C362.203 38.9858 329.5 27.1606 297.819 29.9547C286.016 31.0547 272.519 31.4177 260.188 28.5576C246.173 25.2796 239.694 17.4144 228.518 9.95632Z" fill="#4F78D6"/>
<path opacity="0.7" d="M228.518 9.95632C210.918 -1.76989 184.253 -2.4189 165.817 4.24722C132.816 16.1714 137.216 42.7479 108.616 61.4482C80.0154 80.1485 52.515 73.5484 25.0145 97.8148C-2.486 122.081 -4.97204 168.007 6.31415 189.49C17.6004 210.974 30.5146 226.737 19.5144 263.709C8.51419 300.68 9.61421 343.625 53.615 366.231C97.6157 388.836 131.716 340.644 160.317 350.555C188.917 360.466 242.818 404.346 302.219 391.256C361.62 378.166 335.22 333.131 373.721 320.316C412.221 307.501 434.222 263.258 421.021 216.54C407.821 169.822 374.821 160.835 382.521 131.453C388.329 109.266 396.117 87.9147 381.311 66.5523C362.203 38.9858 329.5 27.1606 297.819 29.9547C286.016 31.0547 272.519 31.4177 260.188 28.5576C246.173 25.2796 239.694 17.4144 228.518 9.95632Z" fill="white"/>
<path d="M398.679 173.715L213.689 217.528L213.513 217.407L382.091 133.366C382.223 132.728 382.344 132.09 382.52 131.43C385.215 121.123 388.339 110.991 389.428 100.959L213.612 216.56H213.414L369.034 52.5255C362.172 46.315 354.349 41.2589 345.867 37.5542L213.216 215.68H213.007L293.628 30.2501C285.085 30.9647 276.493 30.8394 267.975 29.8761L212.545 214.987L212.347 215.086L225.03 7.8317C217.032 3.59523 208.248 1.0491 199.224 0.351562L211.665 214.569L211.522 214.723L151.428 11.8468C142.936 18.1939 138.151 26.147 133.036 34.3532L210.708 214.481L210.62 214.668L100.618 66.0447C93.2334 69.6743 85.4918 72.5276 77.5178 74.5589L209.817 214.712V214.932L28.468 94.9312C27.3679 95.8442 26.1689 96.7903 25.0139 97.8023C19.2898 102.913 14.483 108.966 10.8017 115.7L208.97 215.262L209.036 215.46L0.230469 165.332C0.87948 174.716 3.01352 183.153 6.31357 189.478C6.86358 190.578 7.4136 191.568 7.97461 192.591L208.409 216.043L208.53 216.219L23.7269 237.274C23.6932 245.468 22.497 253.616 20.1738 261.474L208.189 216.945L208.365 217.066L14.6407 313.659C15.9149 322.736 18.977 331.47 23.6499 339.355L208.222 217.946H208.42L63.8776 370.31C75.4168 373.61 86.252 372.51 96.4712 369.419L208.618 218.826H208.827L152.132 349.179C154.917 349.177 157.683 349.638 160.316 350.543C163.261 351.59 166.15 352.787 168.973 354.129L209.289 219.519L209.487 219.42L200.258 370.277C206.319 373.368 212.732 376.481 219.431 379.385L210.169 219.937L210.312 219.783L261.375 392.156C269.486 393.46 277.713 393.892 285.916 393.443L211.115 220.003L211.203 219.816L329.389 379.539C336.836 373.753 341.005 366.845 344.096 359.739L212.017 219.794V219.574L367.846 322.712C369.724 321.765 371.669 320.956 373.665 320.292C380.773 317.935 387.458 314.456 393.465 309.985L212.864 219.244L212.798 219.046L421.274 269.086C423.713 260.677 424.918 251.958 424.849 243.203L213.425 218.463L213.304 218.287L412.793 195.561C408.744 187.876 404.021 180.565 398.679 173.715ZM208.288 216.945L208.926 216.791L208.453 217.033L208.288 216.945ZM208.53 217.891H208.332L208.893 217.517L208.53 217.891ZM208.882 218.661H208.706L209.102 218.133L208.882 218.661ZM208.717 216.153L208.596 216.021L209.256 216.098L208.717 216.153ZM209.531 219.233L209.377 219.332L209.564 218.694L209.531 219.233ZM209.212 215.449L209.146 215.284L209.74 215.581L209.212 215.449ZM211.72 214.668V215.328L211.566 214.822L211.72 214.668ZM210.807 214.558L211.071 215.174L210.752 214.745L210.807 214.558ZM209.916 214.778L210.367 215.262L209.927 214.965L209.916 214.778ZM210.202 219.75V219.09L210.356 219.596L210.202 219.75ZM211.115 219.86L210.851 219.244L211.17 219.673L211.115 219.86ZM211.016 218.133H210.697L210.411 217.99L210.191 217.759L210.07 217.462V217.143L210.158 216.835L210.356 216.582L210.62 216.406L210.928 216.329H211.247L211.533 216.472L211.753 216.703L211.874 217V217.319L211.786 217.627L211.588 217.88L211.324 218.056L211.016 218.133ZM211.555 219.156L211.995 219.453V219.64L211.555 219.156ZM213.348 216.571H213.546L212.985 216.945L213.348 216.571ZM212.996 215.801H213.172L212.776 216.329L212.996 215.801ZM212.391 215.185L212.545 215.086L212.358 215.713L212.391 215.185ZM212.182 218.837L212.71 218.969L212.776 219.134L212.182 218.837ZM212.666 218.32L213.117 218.353L213.238 218.485L212.666 218.32ZM212.952 217.671L213.425 217.429L213.59 217.517L212.952 217.671Z" fill="white"/>
<path d="M208.717 400.002C303.795 400.002 380.87 396.032 380.87 391.136C380.87 386.239 303.795 382.27 208.717 382.27C113.64 382.27 36.5645 386.239 36.5645 391.136C36.5645 396.032 113.64 400.002 208.717 400.002Z" fill="#252423"/>
<path d="M107.328 233.918H319.973C321.225 233.918 322.425 234.415 323.31 235.3C324.195 236.185 324.692 237.385 324.692 238.637V375.105H102.609V238.648C102.608 238.027 102.729 237.413 102.965 236.839C103.202 236.265 103.549 235.743 103.988 235.304C104.426 234.865 104.947 234.516 105.52 234.278C106.093 234.04 106.708 233.918 107.328 233.918Z" fill="#4F78D6" stroke="#252423" stroke-linecap="round" stroke-linejoin="round"/>
<path d="M118.737 244.645H308.567C309.187 244.645 309.8 244.767 310.373 245.004C310.945 245.241 311.466 245.589 311.904 246.027C312.342 246.465 312.69 246.985 312.927 247.558C313.164 248.13 313.286 248.744 313.286 249.364V377.054H114.018V249.364C114.018 248.112 114.515 246.912 115.4 246.027C116.285 245.142 117.485 244.645 118.737 244.645Z" fill="#252423" stroke="#252423" stroke-linecap="round" stroke-linejoin="round"/>
<path d="M322.801 386.557H94.6346C84.1294 386.557 75.6152 380.199 75.6152 372.355H341.82C341.82 380.199 333.306 386.557 322.801 386.557Z" fill="#4F78D6" stroke="#252423" stroke-linecap="round" stroke-linejoin="round"/>
<path d="M212.711 103.875C198.058 117.812 160.581 131.893 116.877 161.758C116.877 161.758 119.605 262.674 212.711 317.84V103.875Z" fill="#4F78D6" stroke="#252423" stroke-linecap="round" stroke-linejoin="round"/>
<path d="M212.711 103.875C227.352 117.812 264.841 131.893 308.545 161.758C308.545 161.758 305.817 262.674 212.711 317.84V103.875Z" fill="#252423" stroke="#252423" stroke-linecap="round" stroke-linejoin="round"/>
<path d="M212.711 112.465C195.034 124.994 164.398 136.94 123.906 164.606C123.906 164.606 126.436 258.107 212.711 309.247C298.985 258.129 301.515 164.606 301.515 164.606C261.013 136.951 230.52 124.994 212.711 112.465Z" fill="#252423" stroke="#252423" stroke-linecap="round" stroke-linejoin="round"/>
<path d="M286.379 154.676C224.602 173.376 177.477 227.662 156.049 256.296C170.789 277.919 190.141 296.005 212.711 309.25C298.985 258.133 301.515 164.609 301.515 164.609C296.301 161.06 291.256 157.749 286.379 154.676Z" fill="#4F78D6" stroke="#252423" stroke-linecap="round" stroke-linejoin="round"/>
<path d="M246.35 206.748H180.117C178.659 206.748 177.26 206.168 176.228 205.137C175.197 204.105 174.617 202.706 174.617 201.248V170.073C174.788 159.95 178.929 150.3 186.149 143.201C193.368 136.103 203.087 132.125 213.211 132.125C223.336 132.125 233.055 136.103 240.274 143.201C247.493 150.3 251.635 159.95 251.806 170.073V201.248C251.806 202.699 251.232 204.091 250.21 205.121C249.188 206.152 247.801 206.736 246.35 206.748ZM185.661 195.748H240.849V170.073C240.705 162.85 237.735 155.972 232.575 150.914C227.416 145.857 220.48 143.025 213.255 143.025C206.031 143.025 199.095 145.857 193.935 150.914C188.776 155.972 185.806 162.85 185.661 170.073V195.748Z" fill="white" stroke="#252423" stroke-linecap="round" stroke-linejoin="round"/>
<path d="M254.83 191.734H170.568V262.939H254.83V191.734Z" fill="white" stroke="#252423" stroke-linecap="round" stroke-linejoin="round"/>
<path d="M221.468 221.291C221.468 219.67 221.038 218.077 220.222 216.676C219.406 215.274 218.233 214.114 216.823 213.313C215.413 212.513 213.816 212.1 212.194 212.118C210.573 212.135 208.985 212.582 207.592 213.413C206.2 214.244 205.052 215.43 204.267 216.848C203.482 218.267 203.086 219.869 203.121 221.49C203.156 223.111 203.621 224.694 204.467 226.077C205.313 227.461 206.51 228.595 207.937 229.365L206.397 245.536H218.189L216.649 229.365C218.108 228.581 219.326 227.416 220.175 225.994C221.023 224.572 221.47 222.947 221.468 221.291Z" fill="#252423" stroke="#252423" stroke-linecap="round" stroke-linejoin="round"/>
<path d="M378.726 207.455L378.594 205.805" stroke="#252423" stroke-linecap="round" stroke-linejoin="round"/>
<path d="M378.273 202.516C373.917 161.285 354.688 123.054 324.182 94.9758C293.676 66.898 253.985 50.8977 212.535 49.9686C171.085 49.0396 130.716 63.2455 98.983 89.9283C67.2498 116.611 46.3262 153.942 40.1274 194.937C39.658 198.061 39.2913 201.196 39.0273 204.342" stroke="#252423" stroke-linecap="round" stroke-linejoin="round" stroke-dasharray="3.01 3.01"/>
<path d="M38.8312 205.969L38.6992 207.608" stroke="#252423" stroke-linecap="round" stroke-linejoin="round"/>
<path d="M76.7044 178.789L86.4506 139.133H56.8711L76.7044 178.789Z" fill="#252423" stroke="#252423" stroke-linecap="round" stroke-linejoin="round"/>
<path d="M76.7031 178.789L78.8702 140.641H60.0488L76.7031 178.789Z" fill="#4F78D6" stroke="#252423" stroke-linecap="round" stroke-linejoin="round"/>
<path d="M76.7035 178.787L74.6905 137.668H55.8691L76.7035 178.787Z" fill="#4F78D6" stroke="#252423" stroke-linecap="round" stroke-linejoin="round"/>
<path d="M41.5686 135.777L36.7065 130.277H11.1641L23.1543 178.788H76.7032L68.2111 135.777H41.5686Z" fill="#252423" stroke="#252423" stroke-linecap="round" stroke-linejoin="round"/>
<path d="M133.542 60.6914H69.7519C67.5223 60.6914 65.7148 62.4989 65.7148 64.7285V99.1921C65.7148 101.422 67.5223 103.229 69.7519 103.229H133.542C135.772 103.229 137.579 101.422 137.579 99.1921V64.7285C137.579 62.4989 135.772 60.6914 133.542 60.6914Z" fill="#252423" stroke="#252423" stroke-linecap="round" stroke-linejoin="round"/>
<path d="M137.579 68.7539H65.7148V84.1542H137.579V68.7539Z" fill="#4F78D6" stroke="#252423" stroke-linecap="round" stroke-linejoin="round"/>
<path d="M122.41 96.4288C122.41 95.8349 122.234 95.2543 121.904 94.7604C121.574 94.2666 121.105 93.8817 120.557 93.6544C120.008 93.4271 119.404 93.3676 118.821 93.4835C118.239 93.5994 117.704 93.8854 117.284 94.3054C116.864 94.7253 116.578 95.2604 116.462 95.843C116.346 96.4255 116.406 97.0293 116.633 97.5781C116.86 98.1268 117.245 98.5958 117.739 98.9258C118.233 99.2558 118.813 99.4319 119.407 99.4319C120.204 99.4319 120.968 99.1155 121.531 98.5523C122.094 97.9891 122.41 97.2253 122.41 96.4288Z" fill="white" stroke="#252423" stroke-linecap="round" stroke-linejoin="round"/>
<path d="M130.758 96.4288C130.758 95.8349 130.582 95.2543 130.252 94.7604C129.922 94.2666 129.453 93.8817 128.904 93.6544C128.355 93.4271 127.752 93.3676 127.169 93.4835C126.587 93.5994 126.052 93.8854 125.632 94.3054C125.212 94.7253 124.926 95.2604 124.81 95.843C124.694 96.4255 124.753 97.0293 124.981 97.5781C125.208 98.1268 125.593 98.5958 126.087 98.9258C126.58 99.2558 127.161 99.4319 127.755 99.4319C128.551 99.4319 129.315 99.1155 129.878 98.5523C130.442 97.9891 130.758 97.2253 130.758 96.4288Z" fill="white" stroke="#252423" stroke-linecap="round" stroke-linejoin="round"/>
<path d="M252.795 32.1992H175.838V82.0961H252.795V32.1992Z" fill="#4F78D6" stroke="#252423" stroke-linecap="round" stroke-linejoin="round"/>
<path d="M249.297 35.3555H179.578V78.5092H249.297V35.3555Z" fill="#252423" stroke="#252423" stroke-linecap="round" stroke-linejoin="round"/>
<path d="M199.984 65.4527C199.984 60.7446 196.156 52.6484 191.448 52.6484C186.739 52.6484 182.9 60.7446 182.9 65.4527C182.9 70.1607 186.728 71.3268 191.448 71.3268C196.167 71.3268 199.984 70.1277 199.984 65.4527Z" fill="white" stroke="#252423" stroke-linecap="round" stroke-linejoin="round"/>
<path d="M191.437 54.2209C194.681 54.2209 197.311 51.5909 197.311 48.3468C197.311 45.1026 194.681 42.4727 191.437 42.4727C188.192 42.4727 185.562 45.1026 185.562 48.3468C185.562 51.5909 188.192 54.2209 191.437 54.2209Z" fill="white" stroke="#252423" stroke-linecap="round" stroke-linejoin="round"/>
<path d="M208.508 43.5742H222.742" stroke="white" stroke-width="2" stroke-linecap="round" stroke-linejoin="round"/>
<path d="M208.508 49.7461H222.742" stroke="white" stroke-width="2" stroke-linecap="round" stroke-linejoin="round"/>
<path d="M208.508 60.6445H241.706" stroke="white" stroke-width="2" stroke-linecap="round" stroke-linejoin="round"/>
<path d="M208.508 68.707H241.706" stroke="white" stroke-width="2" stroke-linecap="round" stroke-linejoin="round"/>
<path d="M358.11 60.6914H300.876C297.334 60.6914 294.463 63.5627 294.463 67.1045V96.893C294.463 100.435 297.334 103.306 300.876 103.306H358.11C361.652 103.306 364.523 100.435 364.523 96.893V67.1045C364.523 63.5627 361.652 60.6914 358.11 60.6914Z" fill="#252423" stroke="#252423" stroke-width="2" stroke-linecap="round" stroke-linejoin="round"/>
<path d="M332.293 80.9318L364.523 64.6295V63.8815C364.523 63.0354 364.187 62.224 363.589 61.6258C362.991 61.0275 362.179 60.6914 361.333 60.6914H297.664C296.817 60.6914 296.004 61.0271 295.404 61.6251C294.804 62.223 294.466 63.0344 294.463 63.8815V64.7725L326.11 81.0088C327.075 81.4795 328.137 81.7178 329.211 81.7044C330.284 81.691 331.34 81.4264 332.293 80.9318Z" fill="#4F78D6" stroke="#252423" stroke-width="2" stroke-linecap="round" stroke-linejoin="round"/>
<path d="M399.845 134.984H337.947C335.487 134.984 333.492 136.979 333.492 139.439V166.269C333.492 168.729 335.487 170.724 337.947 170.724H399.845C402.306 170.724 404.3 168.729 404.3 166.269V139.439C404.3 136.979 402.306 134.984 399.845 134.984Z" fill="#252423"/>
<path d="M333.492 161.387V180.582L344.195 168.251" fill="#252423"/>
<path d="M358.188 153.509C358.19 152.782 357.976 152.07 357.573 151.464C357.17 150.858 356.597 150.385 355.925 150.106C355.253 149.827 354.513 149.753 353.8 149.894C353.086 150.036 352.43 150.386 351.916 150.9C351.401 151.415 351.051 152.07 350.91 152.784C350.768 153.498 350.842 154.238 351.122 154.909C351.401 155.581 351.874 156.155 352.479 156.558C353.085 156.961 353.797 157.175 354.525 157.172C355.495 157.169 356.425 156.783 357.112 156.096C357.798 155.41 358.185 154.48 358.188 153.509Z" fill="#4F78D6"/>
<path d="M373.907 153.509C373.909 152.782 373.695 152.07 373.292 151.464C372.889 150.858 372.316 150.385 371.644 150.106C370.972 149.827 370.232 149.753 369.519 149.894C368.805 150.036 368.149 150.386 367.635 150.9C367.12 151.415 366.77 152.07 366.629 152.784C366.487 153.498 366.561 154.238 366.84 154.909C367.12 155.581 367.592 156.155 368.198 156.558C368.804 156.961 369.516 157.175 370.244 157.172C371.214 157.169 372.144 156.783 372.831 156.096C373.517 155.41 373.904 154.48 373.907 153.509Z" fill="#4F78D6"/>
<path d="M389.637 153.509C389.639 152.782 389.426 152.071 389.023 151.465C388.621 150.859 388.048 150.387 387.377 150.107C386.706 149.827 385.967 149.753 385.253 149.893C384.54 150.034 383.884 150.383 383.369 150.896C382.854 151.41 382.503 152.064 382.36 152.777C382.218 153.49 382.29 154.23 382.568 154.902C382.845 155.574 383.316 156.148 383.921 156.552C384.525 156.957 385.236 157.172 385.963 157.172C386.935 157.169 387.866 156.783 388.554 156.097C389.242 155.411 389.631 154.481 389.637 153.509Z" fill="#4F78D6"/>
<path d="M76.3299 224.152C76.158 223.927 75.9367 223.744 75.683 223.619C75.4293 223.493 75.1501 223.427 74.8669 223.426H27.3461L25.5201 217.926C25.396 217.56 25.1606 217.243 24.8469 217.018C24.5332 216.793 24.157 216.672 23.771 216.672H11.7368C11.2727 216.708 10.8393 216.917 10.5231 217.259C10.2069 217.601 10.0312 218.049 10.0312 218.514C10.0312 218.98 10.2069 219.428 10.5231 219.77C10.8393 220.111 11.2727 220.321 11.7368 220.357H22.44L34.0452 255.173C34.1678 255.539 34.4028 255.857 34.7169 256.082C35.0309 256.308 35.4079 256.428 35.7942 256.427H36.4652C35.8043 257.445 35.4528 258.633 35.4532 259.848C35.4474 260.838 35.6731 261.817 36.1124 262.705C36.5518 263.592 37.1925 264.365 37.9835 264.962C38.7745 265.558 39.694 265.962 40.6685 266.14C41.6431 266.318 42.6457 266.266 43.5966 265.987C44.5474 265.709 45.42 265.213 46.1449 264.537C46.8698 263.862 47.4269 263.027 47.7717 262.098C48.1166 261.169 48.2396 260.173 48.131 259.188C48.0225 258.204 47.6853 257.258 47.1464 256.427H55.9466C55.2857 257.445 54.9342 258.633 54.9346 259.848C54.8989 260.704 55.0368 261.559 55.34 262.361C55.6432 263.163 56.1054 263.895 56.6988 264.513C57.2922 265.132 58.0046 265.624 58.7931 265.961C59.5816 266.297 60.43 266.47 61.2872 266.47C62.1444 266.47 62.9928 266.297 63.7813 265.961C64.5698 265.624 65.2822 265.132 65.8756 264.513C66.469 263.895 66.9312 263.163 67.2343 262.361C67.5375 261.559 67.6754 260.704 67.6398 259.848C67.6402 258.633 67.2887 257.445 66.6278 256.427H68.0468C68.3007 256.446 68.556 256.413 68.7965 256.329C69.0371 256.246 69.2577 256.113 69.4446 255.94C69.6315 255.767 69.7807 255.557 69.8827 255.324C69.9847 255.091 70.0373 254.839 70.0373 254.584C70.0373 254.329 69.9847 254.077 69.8827 253.844C69.7807 253.611 69.6315 253.401 69.4446 253.228C69.2577 253.055 69.0371 252.922 68.7965 252.839C68.556 252.755 68.3007 252.722 68.0468 252.742H37.1143L35.0792 246.658H69.5978C70.0034 246.658 70.3975 246.524 70.7196 246.278C71.0416 246.031 71.2736 245.686 71.3799 245.294L76.6379 225.758C76.715 225.485 76.7272 225.197 76.6738 224.919C76.6203 224.64 76.5026 224.377 76.3299 224.152ZM41.8003 262.51C41.2738 262.51 40.7592 262.354 40.3214 262.061C39.8836 261.769 39.5424 261.353 39.3409 260.866C39.1394 260.38 39.0867 259.845 39.1894 259.328C39.2922 258.812 39.5457 258.338 39.918 257.965C40.2903 257.593 40.7646 257.339 41.281 257.237C41.7974 257.134 42.3326 257.187 42.8191 257.388C43.3055 257.59 43.7212 257.931 44.0137 258.369C44.3063 258.806 44.4624 259.321 44.4624 259.848C44.4595 260.553 44.1781 261.228 43.6795 261.727C43.1809 262.225 42.5055 262.507 41.8003 262.51ZM61.3477 262.51C60.8212 262.51 60.3065 262.354 59.8687 262.061C59.431 261.769 59.0898 261.353 58.8883 260.866C58.6868 260.38 58.6341 259.845 58.7368 259.328C58.8395 258.812 59.093 258.338 59.4653 257.965C59.8376 257.593 60.312 257.339 60.8283 257.237C61.3447 257.134 61.88 257.187 62.3664 257.388C62.8528 257.59 63.2686 257.931 63.5611 258.369C63.8536 258.806 64.0097 259.321 64.0097 259.848C64.0083 260.2 63.9374 260.548 63.801 260.872C63.6646 261.197 63.4656 261.491 63.2151 261.738C62.9647 261.986 62.668 262.181 62.3418 262.314C62.0157 262.446 61.6666 262.513 61.3147 262.51H61.3477ZM66.2648 242.973H59.4336V227.155H66.2648V242.973ZM48.9065 227.155H55.7376V243.006H48.9065V227.155ZM45.2214 243.006H38.3903V227.155H45.2214V243.006ZM28.5781 227.155H34.6942V243.006H33.8692L28.5781 227.155ZM69.9498 236.483V227.155H72.4579L69.9498 236.483Z" fill="#252423"/>
<path d="M376.085 215.242C370.825 215.24 365.683 216.798 361.309 219.718C356.936 222.639 353.526 226.791 351.512 231.65C349.499 236.509 348.971 241.855 349.997 247.014C351.022 252.172 353.555 256.911 357.274 260.63C360.993 264.349 365.731 266.881 370.89 267.907C376.048 268.932 381.395 268.405 386.253 266.391C391.112 264.377 395.264 260.968 398.185 256.594C401.106 252.22 402.663 247.078 402.661 241.819C402.653 234.773 399.85 228.018 394.868 223.036C389.885 218.054 383.131 215.251 376.085 215.242ZM376.085 218.542C378.285 218.542 380.683 221.424 382.377 226.242H369.793C371.52 221.424 373.852 218.542 376.085 218.542ZM383.334 229.542C384.142 233.018 384.588 236.568 384.665 240.136H367.494C367.571 236.568 368.017 233.018 368.825 229.542H383.334ZM384.72 243.469C384.63 247.625 384.016 251.753 382.894 255.756H369.32C368.22 251.765 367.625 247.652 367.549 243.513L384.72 243.469ZM364.238 240.169H352.874C353.141 236.411 354.319 232.776 356.306 229.575H365.415C364.668 233.059 364.255 236.606 364.183 240.169H364.238ZM364.238 243.469C364.293 247.611 364.82 251.733 365.811 255.756H357.439C354.771 252.199 353.186 247.948 352.874 243.513L364.238 243.469ZM366.845 259.056C367.492 260.859 368.356 262.577 369.419 264.171C366.077 263.162 363.006 261.414 360.432 259.056H366.845ZM370.42 259.056H381.739C380.122 262.906 378.043 265.15 376.085 265.15C374.127 265.15 372.048 262.862 370.42 259.056ZM385.314 259.056H391.727C389.153 261.414 386.081 263.162 382.74 264.171C383.802 262.577 384.667 260.859 385.314 259.056ZM386.348 255.756C387.377 251.738 387.938 247.615 388.02 243.469H399.328C399.012 247.924 397.411 252.192 394.719 255.756H386.348ZM388.02 240.169C387.947 236.606 387.535 233.059 386.788 229.575H395.896C397.883 232.776 399.061 236.411 399.328 240.169H388.02ZM393.41 226.275H385.919C385.209 223.883 384.153 221.607 382.784 219.521C386.862 220.765 390.521 223.1 393.366 226.275H393.41ZM369.463 219.521C368.093 221.606 367.04 223.882 366.339 226.275H358.837C361.681 223.1 365.341 220.765 369.419 219.521H369.463Z" fill="#252423"/>
</g>
<defs>
<clipPath id="clip0_4125_6518">
<rect width="424.86" height="400" fill="white"/>
</clipPath>
</defs>
</svg>
