<svg width="101" height="100" viewBox="0 0 101 100" fill="none" xmlns="http://www.w3.org/2000/svg">
<path d="M99.7484 99.2282L90.7544 93.5061L69.2566 79.8302L43.2693 63.2975L20.7983 49.0053L13.3699 44.2801C12.2562 43.5708 11.0819 42.5695 9.86444 42.0505C9.81008 42.0202 9.75738 41.987 9.70657 41.9511C9.41246 41.7629 9.14214 42.23 9.43409 42.416L18.4281 48.1381L39.926 61.814L65.9154 78.3467L88.3821 92.6389L95.8104 97.3641C96.9241 98.0734 98.0984 99.0746 99.3159 99.5937C99.3711 99.6234 99.4238 99.6574 99.4738 99.6953C99.7679 99.8813 100.038 99.4142 99.7463 99.2282H99.7484Z" fill="white"/>
<path d="M0.415824 66.3445L10.3008 69.703L33.9309 77.726L62.5068 87.4315L87.296 95.8481L95.4553 98.6183C96.7139 99.0508 98.0006 99.6196 99.2982 99.9159C99.3555 99.9321 99.4118 99.9516 99.4669 99.9743C99.559 99.9986 99.656 99.9984 99.748 99.9735C99.84 99.9487 99.9239 99.9001 99.9914 99.8327C100.059 99.7653 100.107 99.6814 100.132 99.5893C100.157 99.4973 100.157 99.4004 100.133 99.3082C99.0084 96.011 97.8846 92.7117 96.7615 89.4102L88.7428 65.8666C85.499 56.3428 82.2551 46.8182 79.0113 37.2929C76.2072 29.0551 73.4031 20.8187 70.599 12.5837L67.8158 4.41576C67.3833 3.14202 67.0157 1.82071 66.5075 0.566435C66.4837 0.512372 66.4686 0.453977 66.4491 0.39775C66.4098 0.259078 66.3173 0.141539 66.1917 0.0706762C66.0662 -0.000186637 65.9178 -0.0186474 65.7787 0.0193052L45.8055 7.61416C44.6636 8.04667 43.5002 8.4489 42.3735 8.91169C42.0445 9.04707 41.7492 9.25303 41.5085 9.51503L36.0329 14.9841L17.0588 33.9345L10.3549 40.6232C9.98508 40.993 9.50716 41.3563 9.19575 41.7802C8.83028 42.2776 8.67025 43.0129 8.454 43.5816L0.253633 65.0946C0.180106 65.2892 0.10658 65.486 0.0373783 65.6806C-0.209152 66.3294 0.835357 66.6127 1.07972 65.9683C3.59693 59.3711 6.11269 52.7724 8.627 46.1723C9.07465 44.9981 9.56771 43.8324 9.97427 42.643C10.0997 42.2754 10.1429 42.3922 9.97427 42.5414C10.1127 42.4182 10.2403 42.2776 10.3722 42.1457L15.8521 36.6723L34.6986 17.8581L41.4025 11.1542C41.8048 10.752 42.2178 10.3584 42.6114 9.94539C42.4168 10.1616 42.3843 10.0535 42.739 9.93025C43.2018 9.77238 43.6559 9.58207 44.1144 9.40907L65.5235 1.26926L66.075 1.05301L65.4111 0.676714C66.5342 3.97532 67.6573 7.27464 68.7803 10.5747L76.8077 34.1356L86.5392 62.7093C89.3418 70.9472 92.1459 79.1836 94.9514 87.4185L97.7325 95.5865L98.5867 98.095C98.7208 98.4886 98.8029 99.0898 99.043 99.4336C99.0692 99.488 99.0888 99.5454 99.1014 99.6045L99.7653 98.9406L89.8695 95.5821L66.2393 87.5569L37.6656 77.8536L12.8742 69.437L4.71712 66.6646C3.45636 66.2321 2.16965 65.6633 0.874283 65.3671C0.816276 65.3509 0.759237 65.3314 0.703442 65.3087C0.0373787 65.0773 -0.24159 66.1218 0.415824 66.3445Z" fill="white"/>
<path d="M65.4089 0.397752C62.8917 6.99495 60.3759 13.5929 57.8616 20.1915C57.414 21.3658 56.9231 22.5336 56.5144 23.723C56.3889 24.0906 56.3457 23.9717 56.5144 23.8224C56.3759 23.9479 56.2505 24.0863 56.1186 24.2182L50.6409 29.6916L31.7943 48.5057L25.0904 55.2096C24.686 55.6118 24.273 56.0076 23.8794 56.4185C24.074 56.2152 24.1086 56.3125 23.7518 56.4336C23.289 56.5915 22.8349 56.7818 22.3786 56.9569L0.969394 65.0946L0.417946 65.3109C-0.230817 65.5552 0.0524747 66.6084 0.705563 66.3532L20.6788 58.7583C21.8206 58.3258 22.9841 57.9258 24.1108 57.4608C24.4399 57.3246 24.7352 57.1179 24.9758 56.8553L30.4535 51.3862L49.4277 32.438L56.1316 25.7493C56.5014 25.3795 56.9793 25.014 57.2907 24.5901C57.6562 24.0928 57.8162 23.3575 58.0325 22.7887L66.2328 1.28439C66.3064 1.08976 66.3799 0.895142 66.4491 0.700513C66.6956 0.0517497 65.6511 -0.231547 65.4067 0.412891L65.4089 0.397752Z" fill="white"/>
<path d="M23.9572 57.2899L31.4764 61.5415L49.4255 71.7054L71.2369 84.0449L90.0208 94.6695L96.2705 98.1988C97.2372 98.7459 98.1974 99.3947 99.2073 99.8618C99.2505 99.8812 99.2938 99.9094 99.337 99.9331C99.4404 99.9897 99.5593 100.011 99.6759 99.9944C99.7925 99.9777 99.9005 99.9236 99.9838 99.8403C100.067 99.757 100.121 99.649 100.138 99.5324C100.155 99.4158 100.133 99.2969 100.077 99.1935C98.6551 96.6922 97.2358 94.1901 95.8186 91.6874L85.6546 73.7555L73.2957 51.9657L62.656 33.2078L59.1202 26.9711C58.5796 26.0195 58.1081 24.9188 57.4572 24.0386C57.4298 23.9971 57.4052 23.9537 57.3837 23.9089C57.0398 23.3034 56.1056 23.8462 56.4494 24.4538C57.8681 26.9552 59.2874 29.458 60.7075 31.9622L70.8715 49.8919L83.2239 71.6752L93.8636 90.4352C95.0429 92.5142 96.2222 94.5931 97.4016 96.672L98.4828 98.5816C98.6515 98.88 98.8158 99.3622 99.0624 99.6044C99.0919 99.6446 99.1166 99.6882 99.1359 99.7342L99.8755 98.9946L92.378 94.7387L74.4288 84.5747L52.6174 72.2482L33.8163 61.6237L27.5708 58.0901C26.6042 57.5429 25.644 56.8963 24.6341 56.4292C24.5887 56.4076 24.5476 56.3795 24.5043 56.3557C23.8967 56.0119 23.3517 56.9461 23.9572 57.2899Z" fill="white"/>
<path d="M42.0248 9.67937L47.7296 18.6172C52.2983 25.7766 56.8663 32.9382 61.4336 40.102L78.0095 66.0893L92.3342 88.5474L97.0377 95.9216C97.76 97.0505 98.4045 98.4107 99.2781 99.4314C99.315 99.4816 99.3483 99.5344 99.3776 99.5893C99.5636 99.8813 100.026 99.611 99.8447 99.3168L94.1378 90.3682L80.4337 68.8834L63.8578 42.9047L49.5331 20.4467L44.8296 13.0724C44.1095 11.9436 43.4629 10.5833 42.5914 9.56259C42.5538 9.51247 42.5198 9.45971 42.4897 9.40473C42.3037 9.11279 41.841 9.3831 42.0248 9.67937Z" fill="white"/>
</svg>
