<svg width="20" height="15" viewBox="0 0 20 15" fill="none" xmlns="http://www.w3.org/2000/svg">
<path d="M0 1C0 0.734784 0.105357 0.48043 0.292893 0.292893C0.48043 0.105357 0.734783 0 1 0H19C19.2652 0 19.5196 0.105357 19.7071 0.292893C19.8946 0.48043 20 0.734784 20 1C20 1.26522 19.8946 1.51957 19.7071 1.70711C19.5196 1.89464 19.2652 2 19 2H1C0.734783 2 0.48043 1.89464 0.292893 1.70711C0.105357 1.51957 0 1.26522 0 1ZM5.25 7.032C5.25 6.76678 5.35536 6.51243 5.54289 6.32489C5.73043 6.13736 5.98478 6.032 6.25 6.032H13.75C14.0152 6.032 14.2696 6.13736 14.4571 6.32489C14.6446 6.51243 14.75 6.76678 14.75 7.032C14.75 7.29722 14.6446 7.55157 14.4571 7.73911C14.2696 7.92664 14.0152 8.032 13.75 8.032H6.25C5.98478 8.032 5.73043 7.92664 5.54289 7.73911C5.35536 7.55157 5.25 7.29722 5.25 7.032ZM1 12.065C0.734783 12.065 0.48043 12.1704 0.292893 12.3579C0.105357 12.5454 0 12.7998 0 13.065C0 13.3302 0.105357 13.5846 0.292893 13.7721C0.48043 13.9596 0.734783 14.065 1 14.065H19C19.2652 14.065 19.5196 13.9596 19.7071 13.7721C19.8946 13.5846 20 13.3302 20 13.065C20 12.7998 19.8946 12.5454 19.7071 12.3579C19.5196 12.1704 19.2652 12.065 19 12.065H1Z" fill="white"/>
</svg>
