<svg width="73" height="65" viewBox="0 0 73 65" fill="none" xmlns="http://www.w3.org/2000/svg">
<path d="M57.4609 63.8771L45.0926 61.1815L25.4067 56.8929L20.9266 55.9159L21.1825 56.3664L26.062 42.8982L33.8521 21.4089L35.6468 16.4563L35.1919 16.7166L47.5601 19.4123L67.246 23.7008L71.7261 24.6779L71.4702 24.2274C69.8437 28.7178 68.2167 33.2081 66.5893 37.6985L58.8065 59.1849L57.0118 64.1375C56.8509 64.5763 57.5574 64.7708 57.7168 64.332C59.3433 59.8465 60.9703 55.3562 62.5977 50.8609L70.3805 29.3745L72.1737 24.4175C72.1989 24.3243 72.1863 24.2248 72.1387 24.1407C72.0911 24.0567 72.0122 23.9948 71.9192 23.9685L59.5495 21.2728L39.8651 16.9829L35.3849 16.0073C35.2917 15.984 35.1932 15.9974 35.1096 16.0448C35.026 16.0922 34.9638 16.1698 34.9359 16.2618C33.3094 20.7521 31.6805 25.243 30.0492 29.7343L22.2649 51.2207C21.6682 52.8706 21.0704 54.5215 20.4717 56.1733C20.4465 56.2666 20.4591 56.366 20.5067 56.4501C20.5544 56.5342 20.6332 56.5961 20.7262 56.6223L33.0959 59.318L52.7818 63.608L57.2605 64.5836C57.7256 64.6831 57.9216 63.9781 57.4609 63.8771Z" fill="white"/>
<path d="M72.0819 24.0621L62.5395 16.6026C58.9428 13.7899 55.3988 10.888 51.7392 8.15863C51.2185 7.77103 50.4126 7.74324 49.7924 7.60721L43.7677 6.29082L26.349 2.49961L18.9728 0.890686C17.6886 0.609856 16.4029 0.271981 15.107 0.0481945C15.0455 0.0379559 14.9841 0.0218668 14.9227 0.00724026C14.6024 -0.0615047 14.2557 0.37583 14.5672 0.618631L21.4622 6.00999L32.4746 14.6177L35.0298 16.6157C35.397 16.9083 35.9177 16.389 35.5476 16.0994L28.6512 10.708L17.6403 2.1003L15.0836 0.103775L14.7281 0.715166L24.0731 2.75119L41.5357 6.5541L48.3137 8.03138C49.2893 8.24493 50.2678 8.50821 51.2536 8.67203C51.0606 8.63985 51.081 8.55062 51.2536 8.69835C51.4262 8.84608 51.6149 8.98211 51.7963 9.12253C52.4691 9.65006 53.1429 10.1771 53.8177 10.7037L60.3002 15.7718C63.9851 18.6513 67.6695 21.5312 71.3535 24.4117L71.5641 24.577C71.9312 24.8695 72.4519 24.3503 72.0819 24.0607V24.0621Z" fill="white"/>
<path d="M14.4727 0.264744L9.59324 13.7358L1.80897 35.2223L0.0142959 40.1748C-0.00395689 40.2371 -0.00474771 40.3032 0.0120194 40.3659C0.0287865 40.4285 0.062461 40.4854 0.109363 40.5303L7.00434 45.9201L18.0167 54.5294L20.572 56.5273C20.9391 56.8199 21.4598 56.3006 21.0897 56.0096L14.1933 50.6197L3.18241 42.0105L0.625686 40.0125C0.657864 40.1309 0.688575 40.2494 0.720753 40.3679L5.60019 26.8983L13.3844 5.41184L15.1791 0.459278C15.3386 0.0204805 14.6321 -0.175516 14.4727 0.264744Z" fill="white"/>
<path d="M57.4936 64.1063L46.8601 55.7926L39.7881 50.2637L37.6161 48.567C37.4917 48.4691 37.2709 48.2131 37.1144 48.1751C36.9579 48.137 37.0983 48.235 37.0924 48.2467C37.6117 47.2741 37.8823 46.0644 38.2626 45.0289L40.8178 37.9774C43.0128 31.9161 45.2068 25.8549 47.3998 19.7936C48.2949 17.3217 49.1906 14.8494 50.0867 12.3765C50.5401 11.123 51.1383 9.84464 51.4718 8.55165C51.4879 8.49168 51.5157 8.43318 51.5362 8.37467C51.6166 8.15235 51.2641 8.05727 51.1837 8.27667L46.3043 21.7478L38.52 43.2342L36.7253 48.1868C36.7159 48.2177 36.7153 48.2506 36.7236 48.2819C36.7318 48.3132 36.7486 48.3415 36.7721 48.3637L43.6671 53.7551L54.6794 62.3628L57.2362 64.3623C57.419 64.5086 57.675 64.2482 57.4936 64.1034V64.1063Z" fill="white"/>
<path d="M36.9506 48.0573L24.5809 45.3617L4.89207 41.0717L0.413414 40.0946C0.183777 40.0449 0.0857811 40.3974 0.315418 40.4486L12.6851 43.1428L32.3725 47.4328L36.8526 48.4098C37.0822 48.4596 37.1802 48.1071 36.9506 48.0573Z" fill="white"/>
</svg>
