<svg width="114" height="100" viewBox="0 0 114 100" fill="none" xmlns="http://www.w3.org/2000/svg">
<path d="M90.0005 98.8926L70.6289 94.7193L39.7962 88.0801L32.7792 86.5674L33.1801 87.2649L40.8225 66.4141L53.0236 33.1454L55.8345 25.4781L55.122 25.8811L74.4936 30.0545L105.326 36.6937L112.343 38.2063L111.942 37.5089C109.395 44.4607 106.847 51.4124 104.298 58.3642L92.1081 91.6284L89.2972 99.2957C89.0452 99.975 90.1517 100.276 90.4014 99.5969C92.9488 92.6527 95.497 85.7009 98.046 78.7416L110.236 45.4774L113.044 37.8033C113.084 37.6589 113.064 37.5049 112.989 37.3748C112.915 37.2446 112.791 37.1488 112.646 37.1081L93.2718 32.9348L62.4414 26.2933L55.4244 24.7829C55.2785 24.7469 55.124 24.7677 54.9931 24.841C54.8622 24.9143 54.7648 25.0346 54.7211 25.1769C52.1737 32.1287 49.6224 39.0812 47.0674 46.0344L34.8754 79.2987C33.9407 81.8529 33.0045 84.4087 32.0668 86.966C32.0273 87.1104 32.047 87.2643 32.1216 87.3945C32.1963 87.5246 32.3198 87.6204 32.4654 87.6611L51.8392 91.8345L82.672 98.476L89.6866 99.9863C90.4151 100.14 90.7221 99.0489 90.0005 98.8926Z" fill="white"/>
<path d="M112.897 37.2518L97.9518 25.7032C92.3185 21.3488 86.7678 16.8562 81.036 12.6308C80.2205 12.0307 78.9582 11.9877 77.9869 11.7771L68.5508 9.73913L41.2689 3.86977L29.7161 1.37892C27.7047 0.944148 25.691 0.421068 23.6613 0.0746123C23.5651 0.0587614 23.4689 0.0338531 23.3727 0.011209C22.871 -0.0952184 22.328 0.581841 22.816 0.957734L33.6151 9.30436L50.863 22.6304L54.8652 25.7236C55.4402 26.1765 56.2557 25.3726 55.6761 24.9243L44.8747 16.5777L27.6291 3.25158L23.6246 0.160659L23.068 1.10718L37.7043 4.25925L65.0549 10.1467L75.6708 12.4338C77.1988 12.7644 78.7314 13.172 80.2754 13.4256C79.973 13.3758 80.0051 13.2376 80.2754 13.4664C80.5458 13.6951 80.8413 13.9057 81.1254 14.123C82.1792 14.9397 83.2345 15.7557 84.2913 16.5709L94.4444 24.4171C100.216 28.8749 105.987 33.3336 111.757 37.7929L112.086 38.0488C112.661 38.5017 113.477 37.6978 112.897 37.2495V37.2518Z" fill="white"/>
<path d="M22.6676 0.407599L15.0253 21.2628L2.83327 54.5271L0.0223907 62.1944C-0.00619741 62.2908 -0.00743602 62.3931 0.0188252 62.4901C0.0450864 62.5872 0.0978285 62.6752 0.171288 62.7446L10.9704 71.089L28.2183 84.4173L32.2205 87.5105C32.7955 87.9634 33.611 87.1595 33.0315 86.7089L22.23 78.3646L4.9844 65.0362L0.979971 61.943C1.03037 62.1264 1.07847 62.3099 1.12887 62.4933L8.7712 41.6403L20.9632 8.37607L23.7741 0.708767C24.0238 0.0294427 22.9173 -0.273989 22.6676 0.407599Z" fill="white"/>
<path d="M90.0476 99.2501L73.393 86.3792L62.3167 77.8197L58.9147 75.193C58.72 75.0413 58.3741 74.645 58.129 74.5861C57.8839 74.5273 58.1038 74.679 58.0946 74.6971C58.9079 73.1913 59.3317 71.3186 59.9273 69.7154L63.9294 58.7987C67.3673 49.4149 70.8036 40.0312 74.2383 30.6475C75.6403 26.8206 77.0431 22.993 78.4467 19.1646C79.1568 17.224 80.0938 15.2449 80.6161 13.2432C80.6413 13.1503 80.6848 13.0598 80.7169 12.9692C80.8429 12.625 80.2908 12.4778 80.1648 12.8175L72.5225 33.6727L60.3305 66.937L57.5196 74.6043C57.5049 74.6522 57.5039 74.7032 57.5169 74.7515C57.5298 74.7999 57.5562 74.8438 57.5929 74.8783L68.392 83.2249L85.64 96.551L89.6444 99.6464C89.9308 99.8728 90.3317 99.4698 90.0476 99.2456V99.2501Z" fill="white"/>
<path d="M57.8733 74.3974L38.4994 70.2241L7.66211 63.5826L0.647485 62.0699C0.28782 61.9929 0.134336 62.5387 0.494001 62.6179L19.8678 66.789L50.7029 73.4305L57.7198 74.9431C58.0795 75.0201 58.2329 74.4744 57.8733 74.3974Z" fill="white"/>
</svg>
