<svg width="112" height="100" viewBox="0 0 112 100" fill="none" xmlns="http://www.w3.org/2000/svg">
<path d="M88.9583 98.8926L69.8104 94.7193L39.3336 88.0801L32.3977 86.5674L32.794 87.2649L40.3481 66.4141L52.4084 33.1454L55.1868 25.4781L54.4826 25.8811L73.6304 30.0545L104.107 36.6937L111.043 38.2063L110.647 37.5089C108.129 44.4607 105.61 51.4124 103.09 58.3642L91.0415 91.6284L88.2631 99.2957C88.014 99.975 89.1077 100.276 89.3545 99.5969C91.8726 92.6527 94.3913 85.7009 96.9109 78.7416L108.96 45.4774L111.736 37.8033C111.775 37.6589 111.756 37.5049 111.682 37.3748C111.608 37.2446 111.486 37.1488 111.342 37.1081L92.1918 32.9348L61.7174 26.2933L54.7815 24.7829C54.6372 24.7469 54.4845 24.7677 54.3551 24.841C54.2257 24.9143 54.1295 25.0346 54.0863 25.1769C51.5683 32.1287 49.0465 39.0812 46.5209 46.0344L34.4697 79.2987C33.5458 81.8529 32.6204 84.4087 31.6935 86.966C31.6545 87.1104 31.674 87.2643 31.7477 87.3945C31.8215 87.5246 31.9436 87.6204 32.0875 87.6611L51.2377 91.8345L81.7144 98.476L88.648 99.9863C89.3681 100.14 89.6716 99.0489 88.9583 98.8926Z" fill="#252423"/>
<path d="M111.593 37.2518L96.8203 25.7032C91.2521 21.3488 85.7654 16.8562 80.0999 12.6308C79.2937 12.0307 78.046 11.9877 77.0859 11.7771L67.7588 9.73913L40.7919 3.86977L29.3725 1.37892C27.3843 0.944148 25.3939 0.421068 23.3876 0.0746123C23.2925 0.0587614 23.1974 0.0338531 23.1023 0.011209C22.6064 -0.0952184 22.0697 0.581841 22.5521 0.957734L33.2265 9.30436L50.2753 22.6304L54.2312 25.7236C54.7996 26.1765 55.6057 25.3726 55.0328 24.9243L44.3561 16.5777L27.3096 3.25158L23.3514 0.160659L22.8011 1.10718L37.2685 4.25925L64.3033 10.1467L74.7966 12.4338C76.307 12.7644 77.8218 13.172 79.3481 13.4256C79.0492 13.3758 79.0809 13.2376 79.3481 13.4664C79.6153 13.6951 79.9074 13.9057 80.1882 14.123C81.2298 14.9397 82.2729 15.7557 83.3176 16.5709L93.3535 24.4171C99.0583 28.8749 104.762 33.3336 110.466 37.7929L110.792 38.0488C111.36 38.5017 112.166 37.6978 111.593 37.2495V37.2518Z" fill="#252423"/>
<path d="M22.4059 0.411506L14.8518 21.2668L2.80056 54.531L0.0221322 62.1983C-0.00612586 62.2947 -0.00735016 62.397 0.0186078 62.494C0.0445658 62.5911 0.0966989 62.6791 0.169311 62.7485L10.8438 71.0929L27.8925 84.4212L31.8485 87.5144C32.4168 87.9673 33.223 87.1635 32.6501 86.7128L21.9734 78.3685L4.92685 65.0401L0.968655 61.9469C1.01847 62.1304 1.06602 62.3138 1.11583 62.4972L8.66993 41.6442L20.7211 8.37998L23.4996 0.712673C23.7464 0.0333489 22.6527 -0.270083 22.4059 0.411506Z" fill="#252423"/>
<path d="M89.0098 99.2462L72.5475 86.3753L61.599 77.8158L58.2364 75.1891C58.0439 75.0374 57.702 74.6411 57.4597 74.5822C57.2174 74.5234 57.4348 74.6751 57.4257 74.6932C58.2296 73.1874 58.6485 71.3147 59.2373 69.7115L63.1932 58.7947C66.5913 49.411 69.9879 40.0273 73.383 30.6436C74.7689 26.8167 76.1554 22.9891 77.5428 19.1607C78.2447 17.2201 79.1709 15.241 79.6872 13.2393C79.7121 13.1464 79.7551 13.0559 79.7868 12.9653C79.9114 12.6211 79.3656 12.4739 79.2411 12.8136L71.687 33.6688L59.6358 66.933L56.8574 74.6004C56.8428 74.6482 56.8419 74.6992 56.8547 74.7476C56.8675 74.796 56.8935 74.8399 56.9298 74.8743L67.6043 83.221L84.653 96.5471L88.6112 99.6425C88.8943 99.8689 89.2906 99.4659 89.0098 99.2417V99.2462Z" fill="#252423"/>
<path d="M57.2064 74.4013L38.0563 70.228L7.57503 63.5865L0.641394 62.0738C0.285881 61.9968 0.134169 62.5426 0.489682 62.6218L19.6398 66.7929L50.1188 73.4344L57.0547 74.947C57.4102 75.024 57.5619 74.4783 57.2064 74.4013Z" fill="#252423"/>
</svg>
