<svg width="489" height="400" viewBox="0 0 489 400" fill="none" xmlns="http://www.w3.org/2000/svg">
<g clip-path="url(#clip0_4125_6393)">
<path d="M473.451 233.034C483.277 200.858 488.497 167.447 488.956 133.8C489.503 99.1672 485.752 61.7141 462.88 35.7643C440.555 10.3741 404.624 1.69058 370.869 0.224677C357.195 -0.368396 343.242 0.023255 330.26 4.37619C304.051 13.1604 285.666 36.4469 262.426 51.4304C217.509 80.3456 156.897 76.9326 113.698 108.388C102.654 116.582 93.0425 126.558 85.2566 137.907C53.7899 183.07 51.3453 245.645 75.3445 295.195C99.3436 344.744 147.643 380.687 200.999 393.858C254.356 407.028 311.954 398.401 361.392 374.353C419.057 346.311 454.944 292.643 473.451 233.034Z" fill="#F06E19"/>
<path opacity="0.7" d="M473.451 233.034C483.277 200.858 488.497 167.447 488.956 133.8C489.503 99.1672 485.752 61.7141 462.88 35.7643C440.555 10.3741 404.624 1.69058 370.869 0.224677C357.195 -0.368396 343.242 0.023255 330.26 4.37619C304.051 13.1604 285.666 36.4469 262.426 51.4304C217.509 80.3456 156.897 76.9326 113.698 108.388C102.654 116.582 93.0425 126.558 85.2566 137.907C53.7899 183.07 51.3453 245.645 75.3445 295.195C99.3436 344.744 147.643 380.687 200.999 393.858C254.356 407.028 311.954 398.401 361.392 374.353C419.057 346.311 454.944 292.643 473.451 233.034Z" fill="white"/>
<path d="M393.873 24.6303V251.251C393.873 252.854 393.558 254.441 392.946 255.922C392.334 257.402 391.437 258.747 390.306 259.88C389.175 261.013 387.832 261.911 386.355 262.523C384.877 263.136 383.294 263.45 381.695 263.449H80.2101C76.9832 263.449 73.8885 262.164 71.6067 259.876C69.325 257.589 68.0431 254.486 68.0431 251.251V24.6303C68.0416 23.0276 68.3553 21.4403 68.9661 19.9592C69.5768 18.4781 70.4728 17.1322 71.6028 15.9984C72.7327 14.8646 74.0745 13.9651 75.5514 13.3515C77.0283 12.7378 78.6114 12.422 80.2101 12.422H381.662C383.264 12.4161 384.852 12.7276 386.334 13.3386C387.816 13.9496 389.163 14.8481 390.298 15.9825C391.432 17.1169 392.332 18.4648 392.946 19.9489C393.56 21.4329 393.875 23.0239 393.873 24.6303Z" fill="white"/>
<path d="M393.875 31.6328V251.249C393.875 252.852 393.56 254.439 392.948 255.919C392.336 257.4 391.439 258.745 390.308 259.878C389.177 261.01 387.834 261.909 386.357 262.521C384.879 263.133 383.296 263.448 381.697 263.446H80.2121C79.0789 263.444 77.9516 263.282 76.8634 262.965L393.875 31.6328Z" fill="#252423"/>
<path opacity="0.9" d="M393.875 31.6328V251.249C393.875 252.852 393.56 254.439 392.948 255.919C392.336 257.4 391.439 258.745 390.308 259.878C389.177 261.01 387.834 261.909 386.357 262.521C384.879 263.133 383.296 263.448 381.697 263.446H80.2121C79.0789 263.444 77.9516 263.282 76.8634 262.965L393.875 31.6328Z" fill="white"/>
<path d="M310.268 154.311L326.688 146.88L323.183 127.186L305.089 125.72C302.812 119.641 299.753 113.885 295.991 108.599L301.673 98.9533L305.312 92.7652L291.18 78.7216L275.397 88.222C266.349 81.963 256.075 77.7094 245.258 75.7451L240.715 57.6172H220.746L216.069 75.8794C209.916 77.1141 203.924 79.0475 198.209 81.6423L183.91 69.3332L167.59 80.5233L174.377 98.1812C170.047 102.664 166.297 107.676 163.215 113.098L144.462 111.173L137.709 129.972L153.235 140.547C152.473 144.959 152.1 149.43 152.119 153.908C151.994 155.771 151.994 157.64 152.119 159.503L135.699 168.746L140.912 187.993H159.464C161.241 191.825 163.324 195.507 165.693 199.004C166.898 200.794 168.178 202.536 169.533 204.229L161.54 220.813L176.855 233.693L191.634 222.592C197.251 225.847 203.25 228.388 209.494 230.157L212.463 248.061L232.354 249.829L238.326 232.932C244.841 232.267 251.255 230.836 257.436 228.669L270.072 241.324L287.374 231.321L282.608 214.065C287.639 209.818 292.113 204.949 295.924 199.574L313.449 202.73L321.888 184.624L308.114 173.434C309.594 167.169 310.318 160.749 310.268 154.311ZM264.77 154.311C264.759 162.153 262.039 169.75 257.071 175.809C252.103 181.867 245.195 186.014 237.521 187.542C229.848 189.071 221.883 187.887 214.982 184.192C208.081 180.498 202.67 174.521 199.67 167.278C196.669 160.035 196.264 151.973 198.524 144.465C200.784 136.956 205.568 130.464 212.064 126.093C218.56 121.723 226.366 119.743 234.153 120.491C241.941 121.239 249.23 124.668 254.78 130.196C255.394 130.811 255.985 131.438 256.532 132.098C261.811 138.192 264.734 145.982 264.77 154.053V154.311Z" fill="#F06E19" stroke="#252423" stroke-miterlimit="10"/>
<path opacity="0.2" d="M308.114 173.506L321.889 184.696L313.506 202.745L295.925 199.579C292.11 204.929 287.635 209.776 282.608 214.003L287.375 231.258L270.073 241.262L257.437 228.673C251.259 230.832 244.848 232.255 238.338 232.914L232.366 249.811L212.475 248.043L209.506 230.139C203.262 228.37 197.263 225.829 191.646 222.574L176.867 233.675L161.541 220.728L169.511 204.144C168.157 202.451 166.877 200.709 165.671 198.918L202.083 172.152C205.953 178.438 211.763 183.287 218.632 185.962C225.5 188.637 233.052 188.993 240.14 186.975C247.229 184.958 253.467 180.677 257.908 174.782C262.349 168.888 264.751 161.702 264.749 154.315V154.102C264.731 146.04 261.832 138.251 256.578 132.147L301.718 98.9688L296.037 108.615C299.799 113.901 302.857 119.656 305.134 125.735L323.228 127.19L326.733 146.885L310.313 154.315C310.354 160.777 309.615 167.221 308.114 173.506Z" fill="#252423"/>
<path d="M378.704 101.987L379.53 101.606C379.992 101.403 380.371 101.049 380.606 100.602C380.841 100.155 380.918 99.641 380.825 99.1444L380.658 98.1373C380.576 97.6392 380.328 97.1836 379.956 96.8443C379.583 96.5051 379.106 96.3022 378.604 96.2685L377.61 96.1902C377.217 96.1609 376.838 96.0273 376.512 95.8032C376.187 95.5791 375.926 95.2725 375.758 94.9145C375.49 94.3438 375.199 93.7955 374.887 93.2584C374.691 92.9182 374.588 92.5323 374.588 92.1394C374.588 91.7466 374.691 91.3606 374.887 91.0204L375.4 90.1476C375.65 89.7109 375.75 89.2044 375.686 88.7053C375.621 88.2063 375.395 87.7421 375.043 87.3836L374.329 86.6675C373.974 86.3048 373.506 86.0741 373.003 86.013C372.5 85.952 371.991 86.0644 371.56 86.3318L370.679 86.8577C370.339 87.0541 369.954 87.1575 369.562 87.1575C369.171 87.1575 368.786 87.0541 368.446 86.8577C367.022 86.0365 365.494 85.4116 363.903 85.0001C363.513 84.8986 363.158 84.6931 362.875 84.4055C362.592 84.1179 362.392 83.7588 362.296 83.3664L362.039 82.3257C361.921 81.825 361.635 81.3803 361.228 81.0664C360.822 80.7525 360.32 80.5887 359.806 80.6024H358.802C358.29 80.5881 357.79 80.7504 357.383 81.0621C356.977 81.3737 356.689 81.8159 356.569 82.3145L356.29 83.4335C356.194 83.8178 355.997 84.1694 355.721 84.4525C355.444 84.7356 355.098 84.94 354.716 85.0449C354.158 85.2016 353.6 85.3694 353.076 85.5708C352.701 85.7083 352.296 85.7424 351.903 85.6696C351.51 85.5967 351.144 85.4197 350.843 85.1568L349.95 84.3847C349.576 84.055 349.102 83.8605 348.604 83.8321C348.106 83.8037 347.614 83.9431 347.204 84.228L346.412 84.7651C345.984 85.0497 345.668 85.4733 345.515 85.9644C345.363 86.4556 345.384 86.9845 345.574 87.4619L345.976 88.5138C346.122 88.884 346.167 89.2865 346.107 89.6799C346.046 90.0733 345.881 90.4434 345.63 90.7518C345.273 91.1785 344.938 91.623 344.626 92.0834C344.398 92.4167 344.085 92.682 343.72 92.8514C343.354 93.0209 342.95 93.088 342.549 93.0458L341.433 92.9451C340.93 92.889 340.424 93.0057 339.996 93.2761C339.568 93.5465 339.244 93.9545 339.078 94.4334L338.721 95.4181C338.548 95.8833 338.534 96.3931 338.681 96.8671C338.829 97.3412 339.129 97.7526 339.536 98.0366L340.563 98.7639C340.885 98.9916 341.142 99.3011 341.307 99.6609C341.472 100.021 341.538 100.418 341.5 100.812C341.437 101.395 341.407 101.982 341.411 102.569C341.399 102.954 341.291 103.331 341.096 103.663C340.901 103.996 340.625 104.273 340.295 104.471L339.245 105.053C338.792 105.29 338.434 105.677 338.231 106.147C338.028 106.618 337.992 107.144 338.129 107.638L338.386 108.611C338.512 109.104 338.802 109.538 339.208 109.843C339.614 110.148 340.111 110.306 340.618 110.29H341.735C342.13 110.286 342.519 110.388 342.862 110.584C343.205 110.781 343.49 111.066 343.688 111.409C343.989 111.946 344.313 112.461 344.659 112.964C344.881 113.289 345.014 113.668 345.043 114.061C345.072 114.454 344.998 114.847 344.827 115.202L344.369 116.153C344.144 116.608 344.08 117.126 344.187 117.622C344.295 118.119 344.568 118.563 344.961 118.884L345.731 119.533C346.114 119.862 346.598 120.052 347.103 120.07C347.608 120.088 348.104 119.934 348.51 119.633L349.303 119.074C349.623 118.844 349.998 118.704 350.39 118.666C350.782 118.629 351.177 118.696 351.535 118.861C352.101 119.13 352.681 119.376 353.276 119.6C353.643 119.737 353.966 119.969 354.215 120.271C354.464 120.574 354.629 120.937 354.694 121.323L354.862 122.297C354.943 122.795 355.191 123.25 355.564 123.59C355.937 123.929 356.413 124.132 356.915 124.165L357.942 124.255C358.442 124.302 358.944 124.178 359.365 123.904C359.786 123.63 360.103 123.221 360.264 122.744L360.577 121.871C360.708 121.495 360.938 121.16 361.243 120.902C361.547 120.644 361.914 120.473 362.307 120.405C362.939 120.306 363.565 120.171 364.182 120.003C364.563 119.901 364.964 119.902 365.345 120.006C365.725 120.111 366.071 120.314 366.348 120.596L367.006 121.267C367.355 121.627 367.814 121.859 368.31 121.926C368.806 121.993 369.31 121.891 369.741 121.636L370.623 121.133C371.076 120.895 371.434 120.509 371.637 120.039C371.841 119.568 371.877 119.042 371.739 118.548L371.494 117.675C371.376 117.285 371.368 116.871 371.468 116.477C371.568 116.082 371.774 115.723 372.063 115.437C372.52 114.978 372.967 114.497 373.38 113.994C373.635 113.688 373.968 113.456 374.343 113.322C374.717 113.188 375.121 113.158 375.512 113.233L376.405 113.401C376.899 113.498 377.412 113.425 377.86 113.194C378.308 112.962 378.665 112.585 378.872 112.125L379.296 111.207C379.516 110.748 379.573 110.226 379.457 109.73C379.342 109.233 379.06 108.791 378.66 108.477L377.99 107.929C377.682 107.685 377.444 107.364 377.299 106.999C377.154 106.634 377.107 106.236 377.164 105.847C377.273 105.18 377.344 104.508 377.376 103.833C377.412 103.434 377.555 103.053 377.789 102.728C378.022 102.403 378.338 102.147 378.704 101.987ZM370.69 102.569C370.69 104.813 370.026 107.006 368.782 108.872C367.539 110.738 365.771 112.193 363.703 113.052C361.634 113.91 359.359 114.135 357.163 113.697C354.967 113.259 352.951 112.179 351.368 110.592C349.785 109.005 348.707 106.983 348.27 104.782C347.833 102.581 348.057 100.3 348.914 98.2263C349.771 96.153 351.221 94.3809 353.083 93.1341C354.944 91.8873 357.133 91.2218 359.371 91.2218C360.852 91.2189 362.318 91.5083 363.687 92.0735C365.056 92.6388 366.301 93.4688 367.35 94.5163C368.399 95.5637 369.231 96.8079 369.801 98.178C370.37 99.5481 370.665 101.017 370.667 102.501L370.69 102.569Z" fill="#F06E19" stroke="#252423" stroke-miterlimit="10"/>
<path d="M393.875 24.6303V25.2458H68.0001V24.6303C67.9986 23.0239 68.3138 21.4329 68.9273 19.9489C69.5409 18.4648 70.4409 17.1169 71.5756 15.9825C72.7103 14.8481 74.0573 13.9496 75.5394 13.3386C77.0214 12.7276 78.6093 12.4161 80.2118 12.422H381.674C383.276 12.4175 384.863 12.7301 386.343 13.3418C387.824 13.9535 389.17 14.8522 390.303 15.9865C391.437 17.1207 392.336 18.4681 392.949 19.9515C393.562 21.4348 393.876 23.0248 393.875 24.6303Z" fill="#252423"/>
<path d="M393.873 24.6303V251.251C393.873 252.854 393.558 254.441 392.946 255.922C392.334 257.402 391.437 258.747 390.306 259.88C389.175 261.013 387.832 261.911 386.355 262.523C384.877 263.136 383.294 263.45 381.695 263.449H80.2101C76.9832 263.449 73.8885 262.164 71.6067 259.876C69.325 257.589 68.0431 254.486 68.0431 251.251V24.6303C68.0416 23.0276 68.3553 21.4403 68.9661 19.9592C69.5768 18.4781 70.4728 17.1321 71.6028 15.9983C72.7327 14.8645 74.0745 13.9651 75.5514 13.3514C77.0283 12.7378 78.6114 12.4219 80.2101 12.4219H381.673C383.274 12.4175 384.861 12.7301 386.342 13.3418C387.822 13.9535 389.168 14.8522 390.302 15.9864C391.435 17.1207 392.334 18.4681 392.947 19.9514C393.56 21.4347 393.875 23.0248 393.873 24.6303Z" stroke="#252423" stroke-linecap="round" stroke-linejoin="round"/>
<path d="M67.9884 24.6328H393.841" stroke="#252423" stroke-linecap="round" stroke-linejoin="round"/>
<path d="M95.1585 18.8324C95.1585 19.3215 95.0138 19.7996 94.7428 20.2063C94.4717 20.613 94.0864 20.93 93.6357 21.1171C93.1849 21.3043 92.6889 21.3533 92.2103 21.2579C91.7318 21.1624 91.2923 20.9269 90.9473 20.5811C90.6023 20.2352 90.3673 19.7946 90.2721 19.3148C90.1769 18.8351 90.2258 18.3379 90.4125 17.886C90.5992 17.4341 90.9154 17.0479 91.3211 16.7762C91.7268 16.5044 92.2037 16.3594 92.6916 16.3594C93.3459 16.3594 93.9733 16.6199 94.436 17.0837C94.8986 17.5475 95.1585 18.1765 95.1585 18.8324Z" fill="#F06E19"/>
<path d="M106.856 18.8324C106.856 19.3215 106.711 19.7996 106.44 20.2063C106.169 20.613 105.784 20.93 105.333 21.1171C104.882 21.3043 104.386 21.3533 103.908 21.2579C103.429 21.1624 102.99 20.9269 102.645 20.5811C102.3 20.2352 102.065 19.7946 101.969 19.3148C101.874 18.8351 101.923 18.3379 102.11 17.886C102.296 17.4341 102.613 17.0479 103.018 16.7762C103.424 16.5044 103.901 16.3594 104.389 16.3594C105.043 16.3594 105.671 16.6199 106.133 17.0837C106.596 17.5475 106.856 18.1765 106.856 18.8324Z" fill="#F06E19"/>
<path d="M118.555 18.8324C118.555 19.3215 118.41 19.7996 118.139 20.2063C117.868 20.613 117.483 20.93 117.032 21.1171C116.581 21.3043 116.085 21.3533 115.607 21.2579C115.128 21.1624 114.689 20.9269 114.344 20.5811C113.999 20.2352 113.764 19.7946 113.669 19.3148C113.573 18.8351 113.622 18.3379 113.809 17.886C113.996 17.4341 114.312 17.0479 114.718 16.7762C115.123 16.5044 115.6 16.3594 116.088 16.3594C116.742 16.3594 117.37 16.6199 117.832 17.0837C118.295 17.5475 118.555 18.1765 118.555 18.8324Z" fill="#F06E19"/>
<path d="M282.965 154.326C282.965 164.588 279.93 174.62 274.242 183.153C268.555 191.686 260.471 198.337 251.013 202.264C241.555 206.192 231.148 207.219 221.108 205.217C211.067 203.215 201.844 198.273 194.606 191.016C187.367 183.76 182.437 174.514 180.44 164.449C178.443 154.383 179.468 143.95 183.385 134.469C187.303 124.988 193.937 116.884 202.449 111.182C210.961 105.481 220.968 102.438 231.205 102.438C244.875 102.437 257.99 107.858 267.687 117.516C277.385 127.175 282.877 140.287 282.965 153.99V154.326Z" stroke="#252423" stroke-width="4" stroke-miterlimit="10"/>
<path d="M475.081 37.3438H290.857C284.137 37.3438 278.69 42.8046 278.69 49.5409V90.5413C278.69 97.2776 284.137 102.738 290.857 102.738H475.081C481.8 102.738 487.248 97.2776 487.248 90.5413V49.5409C487.248 42.8046 481.8 37.3438 475.081 37.3438Z" fill="white" stroke="#252423" stroke-miterlimit="10"/>
<path d="M315.201 69.75H457.332" stroke="#252423" stroke-miterlimit="10"/>
<path d="M310.77 69.7503L333.217 53.8828H390.38L413.709 69.7503" stroke="#252423" stroke-miterlimit="10"/>
<path d="M418.141 69.7729C418.141 70.6582 417.879 71.5236 417.388 72.2596C416.898 72.9957 416.201 73.5694 415.385 73.9082C414.569 74.247 413.671 74.3356 412.805 74.1629C411.939 73.9902 411.143 73.5639 410.519 72.9379C409.894 72.3119 409.469 71.5144 409.297 70.6461C409.125 69.7779 409.213 68.8779 409.551 68.06C409.889 67.2421 410.461 66.543 411.195 66.0512C411.93 65.5594 412.793 65.2969 413.676 65.2969C414.86 65.2969 415.996 65.7685 416.833 66.6079C417.671 67.4473 418.141 68.5858 418.141 69.7729Z" fill="#F06E19" stroke="#252423" stroke-miterlimit="10"/>
<path d="M333.219 58.3224C335.666 58.3224 337.65 56.3335 337.65 53.88C337.65 51.4265 335.666 49.4375 333.219 49.4375C330.771 49.4375 328.787 51.4265 328.787 53.88C328.787 56.3335 330.771 58.3224 333.219 58.3224Z" fill="#F06E19" stroke="#252423" stroke-miterlimit="10"/>
<path d="M394.813 53.8901C394.813 54.7754 394.551 55.6408 394.06 56.3768C393.57 57.1129 392.872 57.6866 392.057 58.0254C391.241 58.3642 390.343 58.4528 389.477 58.2801C388.611 58.1074 387.815 57.6811 387.191 57.0551C386.566 56.4291 386.141 55.6316 385.969 54.7633C385.796 53.8951 385.885 52.9951 386.223 52.1772C386.561 51.3593 387.133 50.6602 387.867 50.1684C388.602 49.6766 389.465 49.4141 390.348 49.4141C391.532 49.4141 392.668 49.8856 393.505 50.7251C394.342 51.5645 394.813 52.703 394.813 53.8901Z" fill="#F06E19" stroke="#252423" stroke-miterlimit="10"/>
<path d="M310.77 69.75L333.217 85.6063H438.568L457.332 69.75" stroke="#252423" stroke-miterlimit="10"/>
<path d="M371.973 85.6167C371.973 86.5019 371.711 87.3673 371.221 88.1034C370.73 88.8395 370.033 89.4132 369.217 89.752C368.401 90.0907 367.503 90.1794 366.637 90.0067C365.771 89.834 364.975 89.4077 364.351 88.7817C363.726 88.1557 363.301 87.3581 363.129 86.4899C362.957 85.6216 363.045 84.7216 363.383 83.9038C363.721 83.0859 364.293 82.3868 365.027 81.895C365.762 81.4031 366.625 81.1406 367.508 81.1406C368.692 81.1406 369.828 81.6122 370.665 82.4516C371.503 83.291 371.973 84.4295 371.973 85.6167Z" fill="#F06E19" stroke="#252423" stroke-miterlimit="10"/>
<path d="M337.649 85.6167C337.649 86.5019 337.387 87.3673 336.896 88.1034C336.406 88.8395 335.708 89.4132 334.893 89.752C334.077 90.0907 333.179 90.1794 332.313 90.0067C331.447 89.834 330.651 89.4077 330.027 88.7817C329.402 88.1557 328.977 87.3581 328.805 86.4899C328.632 85.6216 328.721 84.7216 329.059 83.9038C329.397 83.0859 329.969 82.3868 330.703 81.895C331.437 81.4031 332.301 81.1406 333.184 81.1406C334.368 81.1406 335.504 81.6122 336.341 82.4516C337.178 83.291 337.649 84.4295 337.649 85.6167Z" fill="#F06E19" stroke="#252423" stroke-miterlimit="10"/>
<path d="M442.989 85.6167C442.989 86.5019 442.727 87.3673 442.236 88.1034C441.746 88.8395 441.048 89.4132 440.232 89.752C439.416 90.0907 438.519 90.1794 437.653 90.0067C436.786 89.834 435.991 89.4077 435.366 88.7817C434.742 88.1557 434.317 87.3581 434.145 86.4899C433.972 85.6216 434.061 84.7216 434.399 83.9038C434.737 83.0859 435.309 82.3868 436.043 81.895C436.777 81.4031 437.641 81.1406 438.524 81.1406C439.708 81.1406 440.844 81.6122 441.681 82.4516C442.518 83.291 442.989 84.4295 442.989 85.6167Z" fill="#F06E19" stroke="#252423" stroke-miterlimit="10"/>
<path d="M457.332 74.1896C459.779 74.1896 461.763 72.2006 461.763 69.7471C461.763 67.2936 459.779 65.3047 457.332 65.3047C454.885 65.3047 452.901 67.2936 452.901 69.7471C452.901 72.2006 454.885 74.1896 457.332 74.1896Z" fill="#F06E19" stroke="#252423" stroke-miterlimit="10"/>
<path d="M315.201 69.7729C315.201 70.6582 314.94 71.5236 314.449 72.2596C313.958 72.9957 313.261 73.5694 312.445 73.9082C311.629 74.247 310.732 74.3356 309.865 74.1629C308.999 73.9902 308.204 73.5639 307.579 72.9379C306.955 72.3119 306.53 71.5144 306.357 70.6461C306.185 69.7779 306.274 68.8779 306.611 68.06C306.949 67.2421 307.522 66.543 308.256 66.0512C308.99 65.5594 309.853 65.2969 310.737 65.2969C311.921 65.2969 313.056 65.7685 313.894 66.6079C314.731 67.4473 315.201 68.5858 315.201 69.7729Z" fill="#F06E19" stroke="#252423" stroke-miterlimit="10"/>
<path d="M181.498 175.086H75.3663C68.6467 175.086 63.1993 180.547 63.1993 187.283V293.678C63.1993 300.415 68.6467 305.875 75.3663 305.875H181.498C188.218 305.875 193.665 300.415 193.665 293.678V187.283C193.665 180.547 188.218 175.086 181.498 175.086Z" fill="white" stroke="#252423" stroke-miterlimit="10"/>
<path d="M112.125 249.75L95.2247 282.671H171.81" stroke="#252423" stroke-linecap="round" stroke-linejoin="round"/>
<path d="M171.81 200L136.068 223.824L171.81 234.6" stroke="#252423" stroke-linecap="round" stroke-linejoin="round"/>
<path d="M180.259 191.531H163.359V208.473H180.259V191.531Z" fill="#F06E19" stroke="#252423" stroke-miterlimit="10"/>
<path d="M180.259 226.133H163.359V243.075H180.259V226.133Z" fill="#F06E19" stroke="#252423" stroke-miterlimit="10"/>
<path d="M144.517 215.352H127.617V232.293H144.517V215.352Z" fill="#F06E19" stroke="#252423" stroke-miterlimit="10"/>
<path d="M120.574 241.281H103.674V258.223H120.574V241.281Z" fill="#F06E19" stroke="#252423" stroke-miterlimit="10"/>
<path d="M103.675 274.203H86.7755V291.145H103.675V274.203Z" fill="#F06E19" stroke="#252423" stroke-miterlimit="10"/>
<path d="M180.259 274.203H163.359V291.145H180.259V274.203Z" fill="#F06E19" stroke="#252423" stroke-miterlimit="10"/>
<path d="M119.637 123.82H13.505C6.78537 123.82 1.33801 129.281 1.33801 136.017V242.413C1.33801 249.149 6.78537 254.61 13.505 254.61H119.637C126.357 254.61 131.804 249.149 131.804 242.413V136.017C131.804 129.281 126.357 123.82 119.637 123.82Z" fill="white" stroke="#252423" stroke-miterlimit="10"/>
<path d="M101.922 136.477H15.1347V143.213H101.922V136.477Z" fill="#F06E19"/>
<path d="M65.2763 147.578H15.1349V154.315H65.2763V147.578Z" fill="#F06E19"/>
<path d="M44.3357 158.664H15.1349V165.4H44.3357V158.664Z" fill="#F06E19"/>
<path d="M63.2001 169.766H15.1349V176.502H63.2001V169.766Z" fill="#F06E19"/>
<path d="M90.0568 180.859H15.1349V187.596H90.0568V180.859Z" fill="#F06E19"/>
<path d="M65.2763 191.953H15.1349V198.69H65.2763V191.953Z" fill="#F06E19"/>
<path d="M50.1178 203.047H15.1349V209.783H50.1178V203.047Z" fill="#F06E19"/>
<path d="M71.7728 214.148H15.1349V220.885H71.7728V214.148Z" fill="#F06E19"/>
<path d="M83.7947 225.234H15.1349V231.971H83.7947V225.234Z" fill="#F06E19"/>
<path d="M101.922 236.336H15.1349V243.072H101.922V236.336Z" fill="#F06E19"/>
<path opacity="0.3" d="M101.922 136.477H15.1347V143.213H101.922V136.477Z" fill="#252423"/>
<path opacity="0.3" d="M65.2763 147.578H15.1349V154.315H65.2763V147.578Z" fill="#252423"/>
<path opacity="0.3" d="M44.3357 158.664H15.1349V165.4H44.3357V158.664Z" fill="#252423"/>
<path opacity="0.3" d="M63.2001 169.766H15.1349V176.502H63.2001V169.766Z" fill="#252423"/>
<path opacity="0.3" d="M90.0568 180.859H15.1349V187.596H90.0568V180.859Z" fill="#252423"/>
<path opacity="0.3" d="M65.2763 191.953H15.1349V198.69H65.2763V191.953Z" fill="#252423"/>
<path opacity="0.3" d="M50.1178 203.047H15.1349V209.783H50.1178V203.047Z" fill="#252423"/>
<path opacity="0.3" d="M71.7728 214.148H15.1349V220.885H71.7728V214.148Z" fill="#252423"/>
<path opacity="0.3" d="M83.7947 225.234H15.1349V231.971H83.7947V225.234Z" fill="#252423"/>
<path opacity="0.3" d="M101.922 236.336H15.1349V243.072H101.922V236.336Z" fill="#252423"/>
<path d="M71.0241 112.328H102.603C104.127 112.328 105.589 112.935 106.667 114.016C107.746 115.097 108.351 116.563 108.351 118.091V123.82H65.2755V118.091C65.2755 116.563 65.8812 115.097 66.9592 114.016C68.0373 112.935 69.4995 112.328 71.0241 112.328Z" fill="white" stroke="#252423" stroke-miterlimit="10"/>
<path d="M49.6711 112.328H80.9258C82.5008 112.328 84.0112 112.956 85.1249 114.072C86.2386 115.188 86.8642 116.703 86.8642 118.281V123.877H43.7328V118.281C43.7328 116.703 44.3584 115.188 45.4721 114.072C46.5857 112.956 48.0962 112.328 49.6711 112.328Z" fill="#F06E19" stroke="#252423" stroke-miterlimit="10"/>
<path d="M25.6723 112.328H57.6413C59.1216 112.328 60.5412 112.918 61.5879 113.967C62.6345 115.016 63.2225 116.439 63.2225 117.923V123.843H20.1134V117.923C20.1134 116.443 20.6983 115.023 21.7402 113.975C22.782 112.926 24.1959 112.334 25.6723 112.328Z" fill="white" stroke="#252423" stroke-miterlimit="10"/>
<path d="M432.127 352.094H455.836" stroke="#252423" stroke-linecap="round" stroke-linejoin="round"/>
<path d="M58.5216 352.094H419.647" stroke="#252423" stroke-linecap="round" stroke-linejoin="round"/>
<path d="M425.607 338.176C425.607 338.176 429.815 334.729 431.813 338.5C433.543 341.756 429.402 345.404 424.692 345.393V348.146C424.692 348.146 434.793 348.415 435.575 339.888C436.356 331.361 425.607 333.711 425.607 333.711V338.176Z" fill="#F06E19" stroke="#252423" stroke-linecap="round" stroke-linejoin="round"/>
<path d="M425.263 352.05H405.025L402 326.57H428.31L425.263 352.05Z" fill="#F06E19" stroke="#252423" stroke-linecap="round" stroke-linejoin="round"/>
<path d="M428.264 325.352H402.033C401.268 325.352 400.649 325.973 400.649 326.739V326.873C400.649 327.64 401.268 328.261 402.033 328.261H428.264C429.029 328.261 429.648 327.64 429.648 326.873V326.739C429.648 325.973 429.029 325.352 428.264 325.352Z" fill="white" stroke="#252423" stroke-linecap="round" stroke-linejoin="round"/>
<path d="M411.734 322.584C411.734 322.584 421.043 316.989 418.007 310.566C414.971 304.143 404.701 299.913 404.701 289.921C404.701 281.315 413.832 278.126 419.793 274.68" stroke="#252423" stroke-linecap="round" stroke-linejoin="round"/>
<path d="M414.769 280.766C412.322 282.435 410.638 285.011 410.085 287.926C409.533 290.84 410.157 293.856 411.822 296.309" stroke="#252423" stroke-linecap="round" stroke-linejoin="round"/>
<path d="M419.836 306.156C421.689 309.722 422.204 313.835 421.287 317.749" stroke="#252423" stroke-linecap="round" stroke-linejoin="round"/>
<path d="M170.626 349.989C170.626 349.989 170.202 342.682 163.772 340.108C157.343 337.535 153.905 338.598 139.55 342.469C130.504 344.844 121.239 346.284 111.901 346.766V349.989H170.626Z" fill="white" stroke="#252423" stroke-linecap="round" stroke-linejoin="round"/>
<path d="M170.369 349.989C170.369 349.989 170.793 342.682 177.223 340.108C183.653 337.535 187.079 338.598 201.445 342.469C210.488 344.843 219.749 346.283 229.083 346.766V349.989H170.369Z" fill="white" stroke="#252423" stroke-linecap="round" stroke-linejoin="round"/>
<path d="M231.473 348.703H110.383V351.064H231.473V348.703Z" fill="#252423" stroke="#252423" stroke-linecap="round" stroke-linejoin="round"/>
<path d="M173.494 349.856C174.076 348.135 175.011 346.556 176.239 345.22C177.468 343.884 178.963 342.822 180.627 342.102" stroke="#252423" stroke-linecap="round" stroke-linejoin="round"/>
<path d="M177.166 349.337C178.018 347.855 179.179 346.575 180.57 345.584C181.961 344.593 183.549 343.915 185.225 343.596C189.222 342.857 193.296 344.234 197.08 345.767C200.864 347.3 207.405 349.325 211.479 349.337" stroke="#252423" stroke-linecap="round" stroke-linejoin="round"/>
<path d="M135.229 348.665C139.242 348.24 143.176 347.253 146.916 345.733C149.163 344.67 151.488 343.779 153.87 343.07C156.279 342.351 158.873 342.613 161.092 343.797C162.05 344.418 162.892 345.202 163.581 346.113C164.534 347.324 165.322 348.656 165.925 350.075" stroke="#252423" stroke-linecap="round" stroke-linejoin="round"/>
<path d="M157.375 345.391C158.685 345.581 159.888 346.222 160.78 347.203C161.669 348.176 162.441 349.25 163.079 350.404" stroke="#252423" stroke-linecap="round" stroke-linejoin="round"/>
<path d="M262.324 348.827C257.888 350.87 253.084 351.985 248.204 352.106C240.703 352.106 225.421 336.563 225.421 336.563C225.421 336.563 224.874 334.885 226.058 328.618C227.241 322.352 238.459 264.902 238.459 264.902C238.459 264.902 239.787 251.53 247.389 243.327C254.99 235.125 269.848 232.137 269.848 232.137C269.848 232.137 302.754 217.769 321.195 222.212C339.668 229.552 359.772 237.016 366.492 242.79C373.211 248.564 389.743 294.947 395.514 318.804C395.514 318.804 382.9 345.661 371.135 353.214C359.37 360.767 330.951 358.294 330.951 358.294L262.324 348.827Z" fill="#F06E19"/>
<path opacity="0.3" d="M258.15 302.129L253.395 238.805C250.281 240.07 247.521 242.076 245.353 244.65C243.184 247.223 241.673 250.286 240.949 253.576C238.471 264.9 223.614 334.614 225.433 336.561C227.253 338.508 236.986 346.822 236.986 346.822C236.986 346.822 247.445 355.774 258.195 350.437C268.944 345.099 258.15 302.129 258.15 302.129Z" fill="#252423"/>
<path opacity="0.3" d="M305.389 244.669C304.831 246.571 302.454 247.175 300.489 247.198C294.817 247.259 289.317 245.246 285.018 241.535C284.226 240.853 270.273 249.492 268.665 250.364C266.131 251.73 263.642 253.229 261.064 254.493C258.652 255.68 256.387 256.273 254.801 258.667C253.764 260.431 252.982 262.334 252.48 264.318C249.131 275.43 245.526 286.508 242.434 297.698C239.777 307.378 236.183 318.098 236.328 328.27C236.328 329.015 236.38 329.759 236.484 330.496C238.605 343.477 262.314 348.882 262.314 348.882C262.314 348.882 253.942 354.018 248.193 352.16C242.445 350.303 229.095 342.604 224.875 335.375L236.484 274.445C236.484 274.445 236.339 245.127 257.436 236.399C278.533 227.671 286.826 226.328 286.826 226.328L305.389 244.669Z" fill="#252423"/>
<path opacity="0.3" d="M383.258 340.43C383.258 340.43 392.467 330.224 395.458 318.855C395.458 318.855 381.326 272.17 377.688 263.442C374.049 254.714 368.099 244.732 363.935 240.469L357.238 336.558L355.82 356.767C355.82 356.767 363.366 357.092 368.679 354.596C373.993 352.101 383.258 340.43 383.258 340.43Z" fill="#252423"/>
<path d="M355.776 356.772L363.936 240.474C363.936 240.474 324.41 221.954 314.096 220.231C303.782 218.508 253.518 238.326 253.518 238.326L260.818 349.879" stroke="#252423" stroke-linecap="round" stroke-linejoin="round"/>
<path d="M284.483 163.431L280.42 182.946C280.42 182.946 275.218 179.265 274.113 183.427C273.008 187.59 276.345 193.319 282.931 193.633C282.931 193.633 284.706 202.473 290.499 208.482C293.226 211.405 296.11 214.177 299.139 216.785C299.139 216.785 301.371 231.601 308.884 232.171C316.396 232.742 317.814 225.983 319.321 216.628C319.321 216.628 325.772 205.438 327.659 199.34C327.659 199.34 335.573 193.8 330.293 185.721C330.293 185.721 332.905 166.407 328.362 163.14C323.819 159.872 292.442 161.528 284.483 163.431Z" fill="white"/>
<path d="M308.627 233.717C308.627 233.717 306.105 246.373 304.553 246.686C303.002 246.999 296.818 241.091 291.415 233.717C286.012 226.342 286.838 226.331 286.838 226.331C286.838 226.331 289.35 216.663 291.415 215.242C293.48 213.821 300.892 214.011 300.892 214.011L317.167 213.384C317.167 213.384 322.636 212.612 325.929 214.772C329.222 216.931 330.908 226.331 330.908 226.331C330.908 226.331 321.185 244.336 313.204 246.686C311.426 242.456 309.898 238.126 308.627 233.717Z" fill="white"/>
<path d="M255.293 328.73L257.447 298.383" stroke="#252423" stroke-miterlimit="10"/>
<path d="M330.907 169.038C330.907 169.038 321.676 172.63 313.505 171.936C313.505 171.936 304.888 180.653 293.848 175.472C293.848 175.472 283.891 202.496 306.718 220.232C300.946 218.008 295.783 214.442 291.653 209.828C287.524 205.213 284.546 199.682 282.965 193.689C282.965 193.689 276.479 194.708 274.146 184.972C274.146 184.972 272.271 181.223 280.844 181.201L280.476 162.391L302.465 166.811L318.238 164.506L330.907 169.038Z" fill="#F06E19"/>
<path opacity="0.4" d="M330.907 169.031C330.907 169.031 321.676 172.623 313.505 171.929C313.505 171.929 304.888 180.646 293.848 175.465C293.848 175.465 285.8 204.403 305.781 219.677C305.781 219.677 287.664 213.377 282.965 193.627C282.965 193.627 276.513 192.944 274.146 184.91C274.146 184.91 272.271 181.161 280.844 181.139L280.476 162.328L302.465 166.748L318.238 164.443L330.907 169.031Z" fill="white"/>
<path d="M305.779 206.5C306.495 207.075 307.241 207.613 308.012 208.112C308.525 208.425 309.284 208.693 309.653 208.223C309.768 208.022 309.829 207.795 309.831 207.563C310.155 202.226 308.916 196.832 309.675 191.539" stroke="#252423" stroke-linecap="round" stroke-linejoin="round"/>
<path d="M313.192 188.505C313.192 188.505 315.837 182.652 322.657 187.912" stroke="#252423" stroke-width="2" stroke-linecap="round" stroke-linejoin="round"/>
<path d="M304.575 189.581C304.575 189.581 299.585 183.36 293.412 189.783" stroke="#252423" stroke-width="2" stroke-linecap="round" stroke-linejoin="round"/>
<path d="M297.877 215.851C297.877 215.851 300.534 231.797 309.91 232.289C317.512 232.681 318.996 219.488 319.287 214.766" stroke="#252423" stroke-linecap="round" stroke-linejoin="round"/>
<path d="M281.736 184.726C281.736 184.726 277.606 179.78 274.805 182.197C272.003 184.614 276.2 195.244 282.964 193.633" stroke="#252423" stroke-linecap="round" stroke-linejoin="round"/>
<path d="M299.619 208.523C301.658 210.984 304.446 212.706 307.556 213.425" stroke="#252423" stroke-linecap="round" stroke-linejoin="round"/>
<path d="M299.171 199.214C299.763 199.214 300.243 198.192 300.243 196.931C300.243 195.67 299.763 194.648 299.171 194.648C298.58 194.648 298.1 195.67 298.1 196.931C298.1 198.192 298.58 199.214 299.171 199.214Z" fill="#252423"/>
<path d="M317.647 196.933C317.647 198.198 317.167 199.171 316.53 199.171C315.894 199.171 315.414 198.153 315.414 196.933C315.414 195.714 315.894 194.695 316.53 194.695C317.167 194.695 317.647 195.68 317.647 196.933Z" fill="#252423"/>
<path d="M308.917 232.171C308.917 232.171 306.316 246.371 304.553 246.718C302.789 247.065 289.461 234.901 286.838 226.363C286.838 226.363 289.662 215.173 292.229 214.804C293.457 214.614 294.864 214.435 295.991 214.289" stroke="#252423" stroke-linecap="round" stroke-linejoin="round"/>
<path d="M308.916 232.169C308.916 232.169 311.439 246.369 313.202 246.716C314.966 247.063 328.283 234.899 330.906 226.361C330.906 226.361 327.725 215.294 325.325 214.365C323.785 213.775 322.198 213.318 320.581 213" stroke="#252423" stroke-linecap="round" stroke-linejoin="round"/>
<path d="M284.236 197.208C285.944 200.185 288.076 189.689 287.172 186.388C286.569 184.15 285.386 182.091 285.285 179.808C285.174 177.256 286.402 174.884 287.295 172.501C288.188 170.117 288.723 167.275 287.295 165.149C292.224 168.648 298.014 170.73 304.038 171.169C305.573 171.381 307.136 171.251 308.615 170.789C309.353 170.549 310.016 170.12 310.539 169.545C311.061 168.97 311.425 168.269 311.595 167.51C317.176 168.237 322.757 168.976 328.439 168.204C333.15 167.566 340.472 166.369 342.894 161.546C346.444 154.496 337.313 147.178 331.922 144.76C318.862 138.785 301.326 137.778 289.56 147.144C288.363 148.196 287.103 149.175 285.788 150.076C283.187 151.71 277.282 152.974 275.217 155.246C272.437 158.3 275.92 181.889 275.92 181.889C275.92 181.889 280.452 179.785 282.327 186.813C283.6 191.524 282.506 194.198 284.236 197.208Z" fill="#252423"/>
<path d="M326.9 166.683C326.831 166.977 326.782 167.276 326.755 167.578C326.631 170.252 326.948 172.929 327.693 175.5C327.983 176.619 328.407 177.738 328.597 178.936C329.032 181.744 329.021 184.441 331.086 186.713C331.086 186.713 335.037 172.871 333.441 162.979C333.263 161.86 332.894 158.95 331.209 159.487C329.936 159.879 328.976 162.072 328.474 163.135C327.827 164.259 327.299 165.448 326.9 166.683Z" fill="#252423"/>
<path d="M272.393 153.693C274.136 152.483 276.141 151.705 278.242 151.422C280.344 151.14 282.482 151.363 284.482 152.071C287.632 146.445 292.018 141.612 297.307 137.938" stroke="#252423" stroke-linecap="round" stroke-linejoin="round"/>
<path opacity="0.47" d="M289.359 150.337C289.359 150.337 310.568 165.489 323.483 161.74C336.398 157.991 332.759 146.891 332.759 146.891" stroke="white" stroke-linecap="round" stroke-linejoin="round"/>
<path opacity="0.47" d="M291.414 147.782C291.414 147.782 318.092 160.091 322.58 142.68" stroke="white" stroke-linecap="round" stroke-linejoin="round"/>
<path d="M297.877 215.851C297.877 215.851 302.956 225.732 306.941 225.564C310.926 225.396 318.215 214.766 318.215 214.766C318.215 214.766 314.275 219.857 308.303 220.361C304.362 220.741 297.877 215.851 297.877 215.851Z" fill="#252423"/>
<path d="M328.597 287.971L329.423 287.591C329.884 287.387 330.263 287.033 330.499 286.586C330.734 286.139 330.811 285.625 330.718 285.129L330.55 284.122C330.468 283.624 330.221 283.168 329.848 282.829C329.475 282.489 328.999 282.287 328.497 282.253L327.503 282.175C327.109 282.145 326.73 282.012 326.405 281.788C326.079 281.563 325.819 281.257 325.65 280.899C325.382 280.328 325.092 279.78 324.779 279.243C324.584 278.903 324.48 278.517 324.48 278.124C324.48 277.731 324.584 277.345 324.779 277.005L325.293 276.132C325.541 275.695 325.64 275.189 325.575 274.69C325.511 274.191 325.286 273.727 324.936 273.368L324.221 272.652C323.866 272.289 323.399 272.058 322.896 271.997C322.393 271.936 321.884 272.049 321.453 272.316L320.571 272.842C320.232 273.038 319.847 273.142 319.455 273.142C319.063 273.142 318.678 273.038 318.339 272.842C316.917 272.016 315.388 271.391 313.796 270.984C313.406 270.883 313.05 270.677 312.767 270.39C312.484 270.102 312.284 269.743 312.188 269.351L311.932 268.31C311.814 267.809 311.527 267.365 311.121 267.051C310.714 266.737 310.212 266.573 309.699 266.587H308.694C308.183 266.572 307.682 266.735 307.276 267.046C306.869 267.358 306.582 267.8 306.462 268.299L306.183 269.418C306.086 269.802 305.89 270.154 305.613 270.437C305.337 270.72 304.99 270.924 304.609 271.029C304.051 271.186 303.493 271.354 302.968 271.555C302.593 271.693 302.188 271.727 301.795 271.654C301.403 271.581 301.037 271.404 300.736 271.141L299.843 270.369C299.468 270.039 298.994 269.845 298.497 269.816C297.999 269.788 297.506 269.927 297.097 270.212L296.304 270.749C295.877 271.034 295.56 271.458 295.408 271.949C295.255 272.44 295.276 272.969 295.467 273.446L295.869 274.498C296.015 274.868 296.06 275.271 295.999 275.664C295.938 276.058 295.774 276.428 295.523 276.736C295.163 277.161 294.828 277.605 294.518 278.068C294.291 278.401 293.978 278.666 293.612 278.836C293.247 279.005 292.842 279.072 292.442 279.03L291.326 278.929C290.823 278.873 290.316 278.99 289.888 279.26C289.46 279.531 289.137 279.939 288.97 280.418L288.613 281.402C288.44 281.868 288.426 282.377 288.574 282.851C288.721 283.326 289.022 283.737 289.428 284.021L290.455 284.748C290.778 284.976 291.035 285.285 291.2 285.645C291.364 286.005 291.431 286.402 291.393 286.796C291.324 287.379 291.294 287.966 291.303 288.553C291.284 288.937 291.173 289.31 290.978 289.641C290.784 289.973 290.512 290.252 290.187 290.455L289.138 291.037C288.685 291.275 288.326 291.661 288.123 292.131C287.92 292.602 287.884 293.128 288.022 293.622L288.278 294.596C288.405 295.088 288.695 295.522 289.101 295.828C289.507 296.133 290.004 296.29 290.511 296.274H291.627C292.022 296.27 292.412 296.372 292.755 296.569C293.098 296.765 293.383 297.05 293.581 297.393C293.882 297.93 294.206 298.445 294.552 298.948C294.774 299.274 294.906 299.652 294.935 300.045C294.965 300.438 294.89 300.832 294.719 301.186L294.261 302.138C294.037 302.593 293.973 303.111 294.08 303.607C294.188 304.103 294.46 304.548 294.853 304.868L295.623 305.517C296.007 305.847 296.491 306.036 296.995 306.054C297.5 306.073 297.996 305.919 298.403 305.618L299.195 305.058C299.516 304.829 299.891 304.688 300.283 304.651C300.675 304.613 301.07 304.68 301.428 304.846C301.986 305.114 302.566 305.36 303.169 305.584C303.535 305.722 303.859 305.953 304.108 306.256C304.356 306.558 304.522 306.921 304.587 307.307L304.754 308.281C304.836 308.779 305.084 309.235 305.456 309.574C305.829 309.913 306.306 310.116 306.808 310.15L307.835 310.239C308.335 310.286 308.836 310.162 309.258 309.888C309.679 309.614 309.996 309.205 310.157 308.729L310.469 307.856C310.601 307.479 310.831 307.144 311.135 306.886C311.439 306.629 311.807 306.457 312.199 306.39C312.831 306.288 313.457 306.153 314.075 305.987C314.456 305.885 314.857 305.887 315.237 305.991C315.618 306.095 315.964 306.298 316.24 306.58L316.899 307.251C317.247 307.611 317.707 307.843 318.202 307.91C318.698 307.977 319.202 307.875 319.634 307.621L320.515 307.117C320.969 306.88 321.327 306.493 321.53 306.023C321.733 305.552 321.769 305.026 321.632 304.532L321.386 303.659C321.269 303.27 321.26 302.855 321.36 302.461C321.461 302.067 321.666 301.707 321.955 301.421C322.413 300.963 322.86 300.482 323.273 299.978C323.528 299.672 323.86 299.44 324.235 299.307C324.61 299.173 325.014 299.142 325.405 299.217L326.298 299.385C326.792 299.483 327.305 299.41 327.753 299.178C328.201 298.946 328.557 298.57 328.764 298.109L329.189 297.192C329.409 296.732 329.466 296.211 329.35 295.714C329.234 295.218 328.953 294.776 328.552 294.461L327.883 293.913C327.575 293.669 327.336 293.349 327.191 292.983C327.046 292.618 327 292.221 327.057 291.832C327.157 291.16 327.235 290.489 327.269 289.817C327.305 289.419 327.447 289.037 327.681 288.712C327.915 288.387 328.231 288.132 328.597 287.971ZM315.202 288.553C315.202 289.724 314.856 290.869 314.206 291.843C313.557 292.816 312.634 293.575 311.554 294.023C310.475 294.471 309.287 294.587 308.141 294.358C306.995 294.129 305.943 293.564 305.118 292.735C304.292 291.906 303.731 290.85 303.504 289.701C303.278 288.552 303.396 287.361 303.845 286.28C304.294 285.198 305.052 284.275 306.025 283.626C306.997 282.976 308.14 282.631 309.308 282.633C310.865 282.633 312.358 283.252 313.46 284.353C314.563 285.454 315.185 286.948 315.191 288.508L315.202 288.553Z" fill="#252423"/>
<path d="M255.526 324.633C254.642 325.614 253.675 326.516 252.635 327.33C249.805 330.066 247.686 333.454 246.462 337.199C245.854 338.93 245.854 340.817 246.462 342.548C247.768 345.76 251.932 349.094 255.269 347.024" stroke="#252423" stroke-linecap="round" stroke-linejoin="round"/>
<path d="M255.259 318.916C252.089 318.424 248.964 320.27 246.798 322.631C244.633 324.992 243.115 327.902 241.139 330.464" stroke="#252423" stroke-linecap="round" stroke-linejoin="round"/>
<path d="M255.024 351.586C250.794 352.413 246.413 351.941 242.455 350.232C239.942 348.885 237.599 347.239 235.479 345.331L227.241 338.494C225.924 337.375 224.45 335.842 225.008 334.208C225.008 334.208 238.783 261.473 240.948 253.572C243.437 244.497 253.528 238.32 253.528 238.32" stroke="#252423" stroke-linecap="round" stroke-linejoin="round"/>
<path d="M358.343 325.453C361.884 328.133 364.594 331.765 366.157 335.927C367.388 339.792 368.214 343.775 368.624 347.811C366.481 349.008 362.094 352.108 358.332 352.108" stroke="#252423" stroke-linecap="round" stroke-linejoin="round"/>
<path d="M358.813 319.371C362.161 318.475 365.51 320.758 367.988 323.131C370.466 325.503 373.112 328.256 376.55 328.614" stroke="#252423" stroke-linecap="round" stroke-linejoin="round"/>
<path d="M359.459 357.17C365.922 356.487 371.827 352.94 376.493 348.408C381.159 343.876 384.787 338.337 388.359 332.921C391.25 328.501 394.185 323.969 395.458 318.855C395.458 318.855 384.039 281.01 377.687 263.442C371.079 245.146 363.935 240.469 363.935 240.469" stroke="#252423" stroke-linecap="round" stroke-linejoin="round"/>
<path d="M358.813 319.371C364.695 314.403 373.737 318.42 380.021 321.743" stroke="#252423" stroke-linecap="round" stroke-linejoin="round"/>
<path d="M358.344 299.109H255.527V358.35H358.344V299.109Z" fill="white"/>
<path d="M358.813 358.352H255.014V361.451H358.813V358.352Z" fill="#252423"/>
<path d="M255.014 358.35L358.344 299.109L358.813 358.35H255.014Z" fill="#252423"/>
<path opacity="0.9" d="M255.014 358.35L358.344 299.109L358.813 358.35H255.014Z" fill="white"/>
<path d="M314.518 333.985C317.94 330.554 317.94 324.993 314.518 321.562C311.096 318.132 305.548 318.132 302.126 321.562C298.704 324.993 298.704 330.554 302.126 333.985C305.548 337.415 311.096 337.415 314.518 333.985Z" fill="#252423"/>
<path d="M358.344 299.109H255.527V358.35H358.344V299.109Z" stroke="#252423" stroke-linecap="round" stroke-linejoin="round"/>
<path d="M281.268 178.727C281.268 178.727 283.5 199.428 286.369 203.11C289.238 206.791 298.435 220.331 308.448 220.13C318.461 219.928 325.013 207.004 326.643 201.476C328.689 194.468 329.925 187.248 330.326 179.957" stroke="#252423" stroke-linecap="round" stroke-linejoin="round"/>
<path d="M327.692 199.337C327.692 199.337 335.126 195.488 330.326 185.719" stroke="#252423" stroke-linecap="round" stroke-linejoin="round"/>
</g>
<defs>
<clipPath id="clip0_4125_6393">
<rect width="488.221" height="400" fill="white" transform="translate(0.779419)"/>
</clipPath>
</defs>
</svg>
